<?xml version="1.0" encoding="utf-8" standalone="no"?>
<!DOCTYPE svg PUBLIC "-//W3C//DTD SVG 1.1//EN"
  "http://www.w3.org/Graphics/SVG/1.1/DTD/svg11.dtd">
<svg xmlns:xlink="http://www.w3.org/1999/xlink" width="736.170937pt" height="720.807353pt" viewBox="0 0 736.170937 720.807353" xmlns="http://www.w3.org/2000/svg" version="1.1">
 <metadata>
  <rdf:RDF xmlns:dc="http://purl.org/dc/elements/1.1/" xmlns:cc="http://creativecommons.org/ns#" xmlns:rdf="http://www.w3.org/1999/02/22-rdf-syntax-ns#">
   <cc:Work>
    <dc:type rdf:resource="http://purl.org/dc/dcmitype/StillImage"/>
    <dc:date>2025-10-01T10:52:05.426357</dc:date>
    <dc:format>image/svg+xml</dc:format>
    <dc:creator>
     <cc:Agent>
      <dc:title>Matplotlib v3.10.6, https://matplotlib.org/</dc:title>
     </cc:Agent>
    </dc:creator>
   </cc:Work>
  </rdf:RDF>
 </metadata>
 <defs>
  <style type="text/css">*{stroke-linejoin: round; stroke-linecap: butt}</style>
 </defs>
 <g id="figure_1">
  <g id="patch_1">
   <path d="M 0 720.807353 
L 736.170937 720.807353 
L 736.170937 0 
L 0 0 
z
" style="fill: #ffffff"/>
  </g>
  <g id="axes_1">
   <g id="patch_2">
    <path d="M 66.570938 667.431572 
L 736.170938 667.431572 
L 736.170938 2.151572 
L 66.570938 2.151572 
z
" style="fill: #ffffff"/>
   </g>
   <g id="patch_3">
    <path d="M -132.522602 667.431572 
L 0.923879 667.431572 
L 0.923879 2.151572 
L -132.522602 2.151572 
z
" clip-path="url(#p363dd693a8)" style="opacity: 0.05"/>
   </g>
   <g id="patch_4">
    <path d="M 132.217996 667.431572 
L 263.512114 667.431572 
L 263.512114 2.151572 
L 132.217996 2.151572 
z
" clip-path="url(#p363dd693a8)" style="opacity: 0.05"/>
   </g>
   <g id="patch_5">
    <path d="M 390.849423 667.431572 
L 522.50325 667.431572 
L 522.50325 2.151572 
L 390.849423 2.151572 
z
" clip-path="url(#p363dd693a8)" style="opacity: 0.05"/>
   </g>
   <g id="patch_6">
    <path d="M 654.157078 667.431572 
L 787.969165 667.431572 
L 787.969165 2.151572 
L 654.157078 2.151572 
z
" clip-path="url(#p363dd693a8)" style="opacity: 0.05"/>
   </g>
   <g id="FillBetweenPolyCollection_1">
    <path d="M 122.310241 105.521662 
L 122.310241 412.195589 
L 127.366375 414.346514 
L 132.422508 416.630827 
L 137.478642 418.915141 
L 142.534775 421.199455 
L 147.590908 423.483768 
L 152.647042 425.768082 
L 157.703175 428.052396 
L 162.759309 430.336709 
L 167.815442 432.621023 
L 172.871576 434.905337 
L 177.927709 437.18965 
L 182.983843 439.385238 
L 188.039976 441.540839 
L 193.096109 443.696439 
L 198.152243 445.85204 
L 203.208376 448.007641 
L 208.26451 450.163204 
L 213.320643 452.313148 
L 218.376777 454.463092 
L 223.43291 456.613037 
L 228.489043 458.762981 
L 233.545177 460.912925 
L 238.60131 463.06287 
L 243.657444 465.281986 
L 248.713577 467.407832 
L 253.769711 469.520153 
L 258.825844 471.674611 
L 263.881977 473.829068 
L 268.938111 475.983526 
L 273.994244 478.137983 
L 279.050378 480.292441 
L 284.106511 482.446898 
L 289.162645 484.601356 
L 294.218778 486.755813 
L 299.274911 488.910271 
L 304.331045 491.064728 
L 309.387178 493.219186 
L 314.443312 495.373644 
L 319.499445 497.528101 
L 324.555579 499.679842 
L 329.611712 501.830471 
L 334.667845 503.9811 
L 339.723979 506.131729 
L 344.780112 508.282357 
L 349.836246 510.432986 
L 354.892379 512.585334 
L 359.948513 514.777598 
L 365.004646 516.969861 
L 370.060779 519.162125 
L 375.116913 521.354388 
L 380.173046 523.546652 
L 385.22918 525.738915 
L 390.285313 527.931179 
L 395.341447 530.123442 
L 400.39758 532.315706 
L 405.453713 534.465707 
L 410.509847 536.875497 
L 415.56598 539.172614 
L 420.622114 542.012955 
L 425.678247 544.695174 
L 430.734381 547.099956 
L 435.790514 549.201085 
L 440.846647 551.59204 
L 445.902781 553.365808 
L 450.958914 555.566006 
L 456.015048 557.970909 
L 461.071181 560.657787 
L 466.127315 562.87428 
L 471.183448 565.544878 
L 476.239581 568.225259 
L 481.295715 571.007374 
L 486.351848 573.910804 
L 491.407982 576.79772 
L 496.464115 580.169817 
L 501.520249 583.617538 
L 506.576382 587.878377 
L 511.632515 592.557773 
L 516.688649 596.818928 
L 521.744782 602.409101 
L 526.800916 607.453058 
L 531.857049 613.213279 
L 536.913183 618.979509 
L 541.969316 624.907412 
L 547.02545 630.513507 
L 552.081583 636.248437 
L 557.137716 641.633801 
L 562.19385 647.280875 
L 567.249983 653.221702 
L 572.306117 658.830299 
L 577.36225 664.922221 
L 582.418384 670.892834 
L 587.474517 676.855707 
L 592.53065 682.807643 
L 597.586784 689.184093 
L 602.642917 695.555077 
L 607.699051 701.92086 
L 612.755184 708.002279 
L 617.811318 713.731202 
L 622.867451 719.399755 
L 622.867451 624.858083 
L 622.867451 624.858083 
L 617.811318 623.010193 
L 612.755184 621.113621 
L 607.699051 618.786324 
L 602.642917 616.782864 
L 597.586784 614.912205 
L 592.53065 612.804123 
L 587.474517 610.618389 
L 582.418384 607.918909 
L 577.36225 605.312662 
L 572.306117 601.660139 
L 567.249983 600.158896 
L 562.19385 596.211883 
L 557.137716 592.949102 
L 552.081583 588.396692 
L 547.02545 584.184308 
L 541.969316 579.864423 
L 536.913183 575.990632 
L 531.857049 571.337128 
L 526.800916 566.676333 
L 521.744782 562.168024 
L 516.688649 557.390321 
L 511.632515 552.1894 
L 506.576382 547.162343 
L 501.520249 541.820359 
L 496.464115 536.71583 
L 491.407982 532.032091 
L 486.351848 526.958919 
L 481.295715 521.441592 
L 476.239581 515.941543 
L 471.183448 510.747913 
L 466.127315 505.552222 
L 461.071181 500.388087 
L 456.015048 494.952951 
L 450.958914 489.517815 
L 445.902781 484.06094 
L 440.846647 478.575556 
L 435.790514 473.210048 
L 430.734381 467.772863 
L 425.678247 462.133966 
L 420.622114 456.650055 
L 415.56598 451.167074 
L 410.509847 445.561401 
L 405.453713 440.148249 
L 400.39758 434.702403 
L 395.341447 429.090448 
L 390.285313 423.103794 
L 385.22918 417.271942 
L 380.173046 411.267658 
L 375.116913 405.194462 
L 370.060779 399.482921 
L 365.004646 393.600678 
L 359.948513 387.515135 
L 354.892379 381.596016 
L 349.836246 375.845532 
L 344.780112 370.08961 
L 339.723979 364.01003 
L 334.667845 358.091038 
L 329.611712 352.163671 
L 324.555579 346.12903 
L 319.499445 339.929985 
L 314.443312 334.092224 
L 309.387178 328.468754 
L 304.331045 322.287414 
L 299.274911 316.087975 
L 294.218778 309.893588 
L 289.162645 303.844808 
L 284.106511 297.868694 
L 279.050378 292.051217 
L 273.994244 286.103241 
L 268.938111 279.942572 
L 263.881977 274.030851 
L 258.825844 267.98781 
L 253.769711 262.012477 
L 248.713577 256.019436 
L 243.657444 249.970406 
L 238.60131 244.037741 
L 233.545177 238.075037 
L 228.489043 231.908709 
L 223.43291 225.875797 
L 218.376777 219.877154 
L 213.320643 214.012913 
L 208.26451 208.221217 
L 203.208376 202.138287 
L 198.152243 196.195948 
L 193.096109 190.253608 
L 188.039976 184.210469 
L 182.983843 178.162735 
L 177.927709 172.115 
L 172.871576 166.067265 
L 167.815442 160.028134 
L 162.759309 153.995971 
L 157.703175 147.963809 
L 152.647042 141.931646 
L 147.590908 135.974445 
L 142.534775 130.198796 
L 137.478642 123.812212 
L 132.422508 117.760443 
L 127.366375 111.708673 
L 122.310241 105.521662 
z
" clip-path="url(#p363dd693a8)" style="fill: #4682b4; fill-opacity: 0.15"/>
   </g>
   <g id="matplotlib.axis_1">
    <g id="xtick_1">
     <g id="line2d_1"/>
     <g id="text_1">
      <!-- Nov -->
      <g transform="translate(109.989481 688.865166) scale(0.25 -0.25)">
       <defs>
        <path id="Helvetica-4e" d="M 488 4591 
L 1222 4591 
L 3541 872 
L 3541 4591 
L 4131 4591 
L 4131 0 
L 3434 0 
L 1081 3716 
L 1081 0 
L 488 0 
L 488 4591 
z
M 2269 4591 
L 2269 4591 
z
" transform="scale(0.015625)"/>
        <path id="Helvetica-6f" d="M 1741 363 
Q 2300 363 2508 786 
Q 2716 1209 2716 1728 
Q 2716 2197 2566 2491 
Q 2328 2953 1747 2953 
Q 1231 2953 997 2559 
Q 763 2166 763 1609 
Q 763 1075 997 719 
Q 1231 363 1741 363 
z
M 1763 3444 
Q 2409 3444 2856 3012 
Q 3303 2581 3303 1744 
Q 3303 934 2909 406 
Q 2516 -122 1688 -122 
Q 997 -122 590 345 
Q 184 813 184 1600 
Q 184 2444 612 2944 
Q 1041 3444 1763 3444 
z
M 1744 3428 
L 1744 3428 
z
" transform="scale(0.015625)"/>
        <path id="Helvetica-76" d="M 688 3347 
L 1581 622 
L 2516 3347 
L 3131 3347 
L 1869 0 
L 1269 0 
L 34 3347 
L 688 3347 
z
" transform="scale(0.015625)"/>
       </defs>
       <use xlink:href="#Helvetica-4e"/>
       <use xlink:href="#Helvetica-6f" transform="translate(72.216797 0)"/>
       <use xlink:href="#Helvetica-76" transform="translate(127.832031 0)"/>
      </g>
     </g>
    </g>
    <g id="xtick_2">
     <g id="line2d_2"/>
     <g id="text_2">
      <!-- Jan -->
      <g transform="translate(243.35977 688.865166) scale(0.25 -0.25)">
       <defs>
        <path id="Helvetica-4a" d="M 2741 1369 
Q 2741 788 2569 466 
Q 2250 -122 1356 -122 
Q 841 -122 475 158 
Q 109 438 109 1153 
L 109 1481 
L 694 1481 
L 694 1153 
Q 694 778 861 589 
Q 1028 400 1381 400 
Q 1878 400 2031 741 
Q 2125 950 2125 1531 
L 2125 4591 
L 2741 4591 
L 2741 1369 
z
" transform="scale(0.015625)"/>
        <path id="Helvetica-61" d="M 844 891 
Q 844 647 1022 506 
Q 1200 366 1444 366 
Q 1741 366 2019 503 
Q 2488 731 2488 1250 
L 2488 1703 
Q 2384 1638 2221 1594 
Q 2059 1550 1903 1531 
L 1563 1488 
Q 1256 1447 1103 1359 
Q 844 1213 844 891 
z
M 2206 2028 
Q 2400 2053 2466 2191 
Q 2503 2266 2503 2406 
Q 2503 2694 2298 2823 
Q 2094 2953 1713 2953 
Q 1272 2953 1088 2716 
Q 984 2584 953 2325 
L 428 2325 
Q 444 2944 830 3186 
Q 1216 3428 1725 3428 
Q 2316 3428 2684 3203 
Q 3050 2978 3050 2503 
L 3050 575 
Q 3050 488 3086 434 
Q 3122 381 3238 381 
Q 3275 381 3322 386 
Q 3369 391 3422 400 
L 3422 -16 
Q 3291 -53 3222 -62 
Q 3153 -72 3034 -72 
Q 2744 -72 2613 134 
Q 2544 244 2516 444 
Q 2344 219 2022 53 
Q 1700 -113 1313 -113 
Q 847 -113 551 170 
Q 256 453 256 878 
Q 256 1344 547 1600 
Q 838 1856 1309 1916 
L 2206 2028 
z
M 1741 3428 
L 1741 3428 
z
" transform="scale(0.015625)"/>
        <path id="Helvetica-6e" d="M 413 3347 
L 947 3347 
L 947 2872 
Q 1184 3166 1450 3294 
Q 1716 3422 2041 3422 
Q 2753 3422 3003 2925 
Q 3141 2653 3141 2147 
L 3141 0 
L 2569 0 
L 2569 2109 
Q 2569 2416 2478 2603 
Q 2328 2916 1934 2916 
Q 1734 2916 1606 2875 
Q 1375 2806 1200 2600 
Q 1059 2434 1017 2257 
Q 975 2081 975 1753 
L 975 0 
L 413 0 
L 413 3347 
z
M 1734 3428 
L 1734 3428 
z
" transform="scale(0.015625)"/>
       </defs>
       <use xlink:href="#Helvetica-4a"/>
       <use xlink:href="#Helvetica-61" transform="translate(50 0)"/>
       <use xlink:href="#Helvetica-6e" transform="translate(105.615234 0)"/>
      </g>
      <!-- 2025 -->
      <g transform="translate(235.707426 715.596416) scale(0.25 -0.25)">
       <defs>
        <path id="Helvetica-32" d="M 200 0 
Q 231 578 439 1006 
Q 647 1434 1250 1784 
L 1850 2131 
Q 2253 2366 2416 2531 
Q 2672 2791 2672 3125 
Q 2672 3516 2437 3745 
Q 2203 3975 1813 3975 
Q 1234 3975 1013 3538 
Q 894 3303 881 2888 
L 309 2888 
Q 319 3472 525 3841 
Q 891 4491 1816 4491 
Q 2584 4491 2939 4075 
Q 3294 3659 3294 3150 
Q 3294 2613 2916 2231 
Q 2697 2009 2131 1694 
L 1703 1456 
Q 1397 1288 1222 1134 
Q 909 863 828 531 
L 3272 531 
L 3272 0 
L 200 0 
z
" transform="scale(0.015625)"/>
        <path id="Helvetica-30" d="M 1731 4475 
Q 2600 4475 2988 3759 
Q 3288 3206 3288 2244 
Q 3288 1331 3016 734 
Q 2622 -122 1728 -122 
Q 922 -122 528 578 
Q 200 1163 200 2147 
Q 200 2909 397 3456 
Q 766 4475 1731 4475 
z
M 1725 391 
Q 2163 391 2422 778 
Q 2681 1166 2681 2222 
Q 2681 2984 2493 3476 
Q 2306 3969 1766 3969 
Q 1269 3969 1039 3501 
Q 809 3034 809 2125 
Q 809 1441 956 1025 
Q 1181 391 1725 391 
z
" transform="scale(0.015625)"/>
        <path id="Helvetica-35" d="M 791 1141 
Q 847 659 1238 475 
Q 1438 381 1700 381 
Q 2200 381 2440 700 
Q 2681 1019 2681 1406 
Q 2681 1875 2395 2131 
Q 2109 2388 1709 2388 
Q 1419 2388 1211 2275 
Q 1003 2163 856 1963 
L 369 1991 
L 709 4400 
L 3034 4400 
L 3034 3856 
L 1131 3856 
L 941 2613 
Q 1097 2731 1238 2791 
Q 1488 2894 1816 2894 
Q 2431 2894 2859 2497 
Q 3288 2100 3288 1491 
Q 3288 856 2895 371 
Q 2503 -113 1644 -113 
Q 1097 -113 676 195 
Q 256 503 206 1141 
L 791 1141 
z
" transform="scale(0.015625)"/>
       </defs>
       <use xlink:href="#Helvetica-32"/>
       <use xlink:href="#Helvetica-30" transform="translate(55.615234 0)"/>
       <use xlink:href="#Helvetica-32" transform="translate(111.230469 0)"/>
       <use xlink:href="#Helvetica-35" transform="translate(166.845703 0)"/>
      </g>
     </g>
    </g>
    <g id="xtick_3">
     <g id="line2d_3"/>
     <g id="text_3">
      <!-- Mar -->
      <g transform="translate(369.324032 688.865166) scale(0.25 -0.25)">
       <defs>
        <path id="Helvetica-4d" d="M 472 4591 
L 1363 4591 
L 2681 709 
L 3991 4591 
L 4872 4591 
L 4872 0 
L 4281 0 
L 4281 2709 
Q 4281 2850 4287 3175 
Q 4294 3500 4294 3872 
L 2984 0 
L 2369 0 
L 1050 3872 
L 1050 3731 
Q 1050 3563 1058 3217 
Q 1066 2872 1066 2709 
L 1066 0 
L 472 0 
L 472 4591 
z
" transform="scale(0.015625)"/>
        <path id="Helvetica-72" d="M 428 3347 
L 963 3347 
L 963 2769 
Q 1028 2938 1284 3180 
Q 1541 3422 1875 3422 
Q 1891 3422 1928 3419 
Q 1966 3416 2056 3406 
L 2056 2813 
Q 2006 2822 1964 2825 
Q 1922 2828 1872 2828 
Q 1447 2828 1219 2554 
Q 991 2281 991 1925 
L 991 0 
L 428 0 
L 428 3347 
z
" transform="scale(0.015625)"/>
       </defs>
       <use xlink:href="#Helvetica-4d"/>
       <use xlink:href="#Helvetica-61" transform="translate(83.300781 0)"/>
       <use xlink:href="#Helvetica-72" transform="translate(138.916016 0)"/>
      </g>
     </g>
    </g>
    <g id="xtick_4">
     <g id="line2d_4"/>
     <g id="text_4">
      <!-- May -->
      <g transform="translate(498.889969 688.865166) scale(0.25 -0.25)">
       <defs>
        <path id="Helvetica-79" d="M 2503 3347 
L 3125 3347 
Q 3006 3025 2597 1878 
Q 2291 1016 2084 472 
Q 1597 -809 1397 -1090 
Q 1197 -1372 709 -1372 
Q 591 -1372 527 -1362 
Q 463 -1353 369 -1328 
L 369 -816 
Q 516 -856 581 -865 
Q 647 -875 697 -875 
Q 853 -875 926 -823 
Q 1000 -772 1050 -697 
Q 1066 -672 1162 -440 
Q 1259 -209 1303 -97 
L 66 3347 
L 703 3347 
L 1600 622 
L 2503 3347 
z
M 1597 3428 
L 1597 3428 
z
" transform="scale(0.015625)"/>
       </defs>
       <use xlink:href="#Helvetica-4d"/>
       <use xlink:href="#Helvetica-61" transform="translate(83.300781 0)"/>
       <use xlink:href="#Helvetica-79" transform="translate(138.916016 0)"/>
      </g>
     </g>
    </g>
    <g id="xtick_5">
     <g id="line2d_5"/>
     <g id="text_5">
      <!-- Jul -->
      <g transform="translate(638.178562 688.865166) scale(0.25 -0.25)">
       <defs>
        <path id="Helvetica-75" d="M 975 3347 
L 975 1125 
Q 975 869 1056 706 
Q 1206 406 1616 406 
Q 2203 406 2416 931 
Q 2531 1213 2531 1703 
L 2531 3347 
L 3094 3347 
L 3094 0 
L 2563 0 
L 2569 494 
Q 2459 303 2297 172 
Q 1975 -91 1516 -91 
Q 800 -91 541 388 
Q 400 644 400 1072 
L 400 3347 
L 975 3347 
z
M 1747 3428 
L 1747 3428 
z
" transform="scale(0.015625)"/>
        <path id="Helvetica-6c" d="M 428 4591 
L 991 4591 
L 991 0 
L 428 0 
L 428 4591 
z
" transform="scale(0.015625)"/>
       </defs>
       <use xlink:href="#Helvetica-4a"/>
       <use xlink:href="#Helvetica-75" transform="translate(50 0)"/>
       <use xlink:href="#Helvetica-6c" transform="translate(105.615234 0)"/>
      </g>
      <!-- 2025 -->
      <g transform="translate(626.35239 715.596416) scale(0.25 -0.25)">
       <use xlink:href="#Helvetica-32"/>
       <use xlink:href="#Helvetica-30" transform="translate(55.615234 0)"/>
       <use xlink:href="#Helvetica-32" transform="translate(111.230469 0)"/>
       <use xlink:href="#Helvetica-35" transform="translate(166.845703 0)"/>
      </g>
     </g>
    </g>
   </g>
   <g id="matplotlib.axis_2">
    <g id="ytick_1">
     <g id="line2d_6">
      <defs>
       <path id="mfb0071c748" d="M 0 0 
L -3.5 0 
" style="stroke: #000000; stroke-width: 0.8"/>
      </defs>
      <g>
       <use xlink:href="#mfb0071c748" x="66.570938" y="667.431572" style="stroke: #000000; stroke-width: 0.8"/>
      </g>
     </g>
     <g id="text_6">
      <!-- 0 -->
      <g transform="translate(47.336875 675.322353) scale(0.22 -0.22)">
       <use xlink:href="#Helvetica-30"/>
      </g>
     </g>
    </g>
    <g id="ytick_2">
     <g id="line2d_7">
      <g>
       <use xlink:href="#mfb0071c748" x="66.570938" y="557.508107" style="stroke: #000000; stroke-width: 0.8"/>
      </g>
     </g>
     <g id="text_7">
      <!-- 50 -->
      <g transform="translate(35.102813 565.398888) scale(0.22 -0.22)">
       <use xlink:href="#Helvetica-35"/>
       <use xlink:href="#Helvetica-30" transform="translate(55.615234 0)"/>
      </g>
     </g>
    </g>
    <g id="ytick_3">
     <g id="line2d_8">
      <g>
       <use xlink:href="#mfb0071c748" x="66.570938" y="447.584642" style="stroke: #000000; stroke-width: 0.8"/>
      </g>
     </g>
     <g id="text_8">
      <!-- 100 -->
      <g transform="translate(22.86875 455.475423) scale(0.22 -0.22)">
       <defs>
        <path id="Helvetica-31" d="M 613 3169 
L 613 3600 
Q 1222 3659 1462 3798 
Q 1703 3938 1822 4456 
L 2266 4456 
L 2266 0 
L 1666 0 
L 1666 3169 
L 613 3169 
z
" transform="scale(0.015625)"/>
       </defs>
       <use xlink:href="#Helvetica-31"/>
       <use xlink:href="#Helvetica-30" transform="translate(55.615234 0)"/>
       <use xlink:href="#Helvetica-30" transform="translate(111.230469 0)"/>
      </g>
     </g>
    </g>
    <g id="ytick_4">
     <g id="line2d_9">
      <g>
       <use xlink:href="#mfb0071c748" x="66.570938" y="337.661177" style="stroke: #000000; stroke-width: 0.8"/>
      </g>
     </g>
     <g id="text_9">
      <!-- 150 -->
      <g transform="translate(22.86875 345.551958) scale(0.22 -0.22)">
       <use xlink:href="#Helvetica-31"/>
       <use xlink:href="#Helvetica-35" transform="translate(55.615234 0)"/>
       <use xlink:href="#Helvetica-30" transform="translate(111.230469 0)"/>
      </g>
     </g>
    </g>
    <g id="ytick_5">
     <g id="line2d_10">
      <g>
       <use xlink:href="#mfb0071c748" x="66.570938" y="227.737712" style="stroke: #000000; stroke-width: 0.8"/>
      </g>
     </g>
     <g id="text_10">
      <!-- 200 -->
      <g transform="translate(22.86875 235.628493) scale(0.22 -0.22)">
       <use xlink:href="#Helvetica-32"/>
       <use xlink:href="#Helvetica-30" transform="translate(55.615234 0)"/>
       <use xlink:href="#Helvetica-30" transform="translate(111.230469 0)"/>
      </g>
     </g>
    </g>
    <g id="ytick_6">
     <g id="line2d_11">
      <g>
       <use xlink:href="#mfb0071c748" x="66.570938" y="117.814246" style="stroke: #000000; stroke-width: 0.8"/>
      </g>
     </g>
     <g id="text_11">
      <!-- 250 -->
      <g transform="translate(22.86875 125.705028) scale(0.22 -0.22)">
       <use xlink:href="#Helvetica-32"/>
       <use xlink:href="#Helvetica-35" transform="translate(55.615234 0)"/>
       <use xlink:href="#Helvetica-30" transform="translate(111.230469 0)"/>
      </g>
     </g>
    </g>
    <g id="ytick_7">
     <g id="line2d_12">
      <g>
       <use xlink:href="#mfb0071c748" x="66.570938" y="7.890781" style="stroke: #000000; stroke-width: 0.8"/>
      </g>
     </g>
     <g id="text_12">
      <!-- 300 -->
      <g transform="translate(22.86875 15.781562) scale(0.22 -0.22)">
       <defs>
        <path id="Helvetica-33" d="M 1663 -122 
Q 869 -122 511 314 
Q 153 750 153 1375 
L 741 1375 
Q 778 941 903 744 
Q 1122 391 1694 391 
Q 2138 391 2406 628 
Q 2675 866 2675 1241 
Q 2675 1703 2392 1887 
Q 2109 2072 1606 2072 
Q 1550 2072 1492 2070 
Q 1434 2069 1375 2066 
L 1375 2563 
Q 1463 2553 1522 2550 
Q 1581 2547 1650 2547 
Q 1966 2547 2169 2647 
Q 2525 2822 2525 3272 
Q 2525 3606 2287 3787 
Q 2050 3969 1734 3969 
Q 1172 3969 956 3594 
Q 838 3388 822 3006 
L 266 3006 
Q 266 3506 466 3856 
Q 809 4481 1675 4481 
Q 2359 4481 2734 4176 
Q 3109 3872 3109 3294 
Q 3109 2881 2888 2625 
Q 2750 2466 2531 2375 
Q 2884 2278 3082 2001 
Q 3281 1725 3281 1325 
Q 3281 684 2859 281 
Q 2438 -122 1663 -122 
z
" transform="scale(0.015625)"/>
       </defs>
       <use xlink:href="#Helvetica-33"/>
       <use xlink:href="#Helvetica-30" transform="translate(55.615234 0)"/>
       <use xlink:href="#Helvetica-30" transform="translate(111.230469 0)"/>
      </g>
     </g>
    </g>
    <g id="text_13">
     <!-- Persistence times (days) -->
     <g transform="translate(14.58125 444.263447) rotate(-90) scale(0.2 -0.2)">
      <defs>
       <path id="Helvetica-50" d="M 547 4591 
L 2613 4591 
Q 3225 4591 3600 4245 
Q 3975 3900 3975 3275 
Q 3975 2738 3640 2339 
Q 3306 1941 2613 1941 
L 1169 1941 
L 1169 0 
L 547 0 
L 547 4591 
z
M 3347 3272 
Q 3347 3778 2972 3959 
Q 2766 4056 2406 4056 
L 1169 4056 
L 1169 2466 
L 2406 2466 
Q 2825 2466 3086 2644 
Q 3347 2822 3347 3272 
z
" transform="scale(0.015625)"/>
       <path id="Helvetica-65" d="M 1806 3422 
Q 2163 3422 2497 3255 
Q 2831 3088 3006 2822 
Q 3175 2569 3231 2231 
Q 3281 2000 3281 1494 
L 828 1494 
Q 844 984 1069 676 
Q 1294 369 1766 369 
Q 2206 369 2469 659 
Q 2619 828 2681 1050 
L 3234 1050 
Q 3213 866 3089 639 
Q 2966 413 2813 269 
Q 2556 19 2178 -69 
Q 1975 -119 1719 -119 
Q 1094 -119 659 336 
Q 225 791 225 1609 
Q 225 2416 662 2919 
Q 1100 3422 1806 3422 
z
M 2703 1941 
Q 2669 2306 2544 2525 
Q 2313 2931 1772 2931 
Q 1384 2931 1121 2651 
Q 859 2372 844 1941 
L 2703 1941 
z
M 1753 3428 
L 1753 3428 
z
" transform="scale(0.015625)"/>
       <path id="Helvetica-73" d="M 747 1050 
Q 772 769 888 619 
Q 1100 347 1625 347 
Q 1938 347 2175 483 
Q 2413 619 2413 903 
Q 2413 1119 2222 1231 
Q 2100 1300 1741 1391 
L 1294 1503 
Q 866 1609 663 1741 
Q 300 1969 300 2372 
Q 300 2847 642 3140 
Q 984 3434 1563 3434 
Q 2319 3434 2653 2991 
Q 2863 2709 2856 2384 
L 2325 2384 
Q 2309 2575 2191 2731 
Q 1997 2953 1519 2953 
Q 1200 2953 1036 2831 
Q 872 2709 872 2509 
Q 872 2291 1088 2159 
Q 1213 2081 1456 2022 
L 1828 1931 
Q 2434 1784 2641 1647 
Q 2969 1431 2969 969 
Q 2969 522 2630 197 
Q 2291 -128 1597 -128 
Q 850 -128 539 211 
Q 228 550 206 1050 
L 747 1050 
z
M 1578 3428 
L 1578 3428 
z
" transform="scale(0.015625)"/>
       <path id="Helvetica-69" d="M 413 3331 
L 984 3331 
L 984 0 
L 413 0 
L 413 3331 
z
M 413 4591 
L 984 4591 
L 984 3953 
L 413 3953 
L 413 4591 
z
" transform="scale(0.015625)"/>
       <path id="Helvetica-74" d="M 525 4281 
L 1094 4281 
L 1094 3347 
L 1628 3347 
L 1628 2888 
L 1094 2888 
L 1094 703 
Q 1094 528 1213 469 
Q 1278 434 1431 434 
Q 1472 434 1519 436 
Q 1566 438 1628 444 
L 1628 0 
Q 1531 -28 1426 -40 
Q 1322 -53 1200 -53 
Q 806 -53 665 148 
Q 525 350 525 672 
L 525 2888 
L 72 2888 
L 72 3347 
L 525 3347 
L 525 4281 
z
" transform="scale(0.015625)"/>
       <path id="Helvetica-63" d="M 1703 3444 
Q 2269 3444 2623 3169 
Q 2978 2894 3050 2222 
L 2503 2222 
Q 2453 2531 2275 2736 
Q 2097 2941 1703 2941 
Q 1166 2941 934 2416 
Q 784 2075 784 1575 
Q 784 1072 996 728 
Q 1209 384 1666 384 
Q 2016 384 2220 598 
Q 2425 813 2503 1184 
L 3050 1184 
Q 2956 519 2581 211 
Q 2206 -97 1622 -97 
Q 966 -97 575 383 
Q 184 863 184 1581 
Q 184 2463 612 2953 
Q 1041 3444 1703 3444 
z
M 1616 3428 
L 1616 3428 
z
" transform="scale(0.015625)"/>
       <path id="Helvetica-20" transform="scale(0.015625)"/>
       <path id="Helvetica-6d" d="M 413 3347 
L 969 3347 
L 969 2872 
Q 1169 3119 1331 3231 
Q 1609 3422 1963 3422 
Q 2363 3422 2606 3225 
Q 2744 3113 2856 2894 
Q 3044 3163 3297 3292 
Q 3550 3422 3866 3422 
Q 4541 3422 4784 2934 
Q 4916 2672 4916 2228 
L 4916 0 
L 4331 0 
L 4331 2325 
Q 4331 2659 4164 2784 
Q 3997 2909 3756 2909 
Q 3425 2909 3186 2687 
Q 2947 2466 2947 1947 
L 2947 0 
L 2375 0 
L 2375 2184 
Q 2375 2525 2294 2681 
Q 2166 2916 1816 2916 
Q 1497 2916 1236 2669 
Q 975 2422 975 1775 
L 975 0 
L 413 0 
L 413 3347 
z
" transform="scale(0.015625)"/>
       <path id="Helvetica-28" d="M 1894 4666 
Q 1403 3713 1256 3263 
Q 1034 2578 1034 1681 
Q 1034 775 1288 25 
Q 1444 -438 1903 -1306 
L 1525 -1306 
Q 1069 -594 959 -397 
Q 850 -200 722 138 
Q 547 600 478 1125 
Q 444 1397 444 1644 
Q 444 2569 734 3291 
Q 919 3750 1503 4666 
L 1894 4666 
z
" transform="scale(0.015625)"/>
       <path id="Helvetica-64" d="M 769 1634 
Q 769 1097 997 734 
Q 1225 372 1728 372 
Q 2119 372 2370 708 
Q 2622 1044 2622 1672 
Q 2622 2306 2362 2611 
Q 2103 2916 1722 2916 
Q 1297 2916 1033 2591 
Q 769 2266 769 1634 
z
M 1616 3406 
Q 2000 3406 2259 3244 
Q 2409 3150 2600 2916 
L 2600 4606 
L 3141 4606 
L 3141 0 
L 2634 0 
L 2634 466 
Q 2438 156 2169 18 
Q 1900 -119 1553 -119 
Q 994 -119 584 351 
Q 175 822 175 1603 
Q 175 2334 548 2870 
Q 922 3406 1616 3406 
z
" transform="scale(0.015625)"/>
       <path id="Helvetica-29" d="M 222 -1306 
Q 719 -338 863 106 
Q 1081 778 1081 1681 
Q 1081 2584 828 3334 
Q 672 3797 213 4666 
L 591 4666 
Q 1072 3897 1173 3717 
Q 1275 3538 1394 3222 
Q 1544 2831 1608 2450 
Q 1672 2069 1672 1716 
Q 1672 791 1378 66 
Q 1194 -400 613 -1306 
L 222 -1306 
z
" transform="scale(0.015625)"/>
      </defs>
      <use xlink:href="#Helvetica-50"/>
      <use xlink:href="#Helvetica-65" transform="translate(66.699219 0)"/>
      <use xlink:href="#Helvetica-72" transform="translate(122.314453 0)"/>
      <use xlink:href="#Helvetica-73" transform="translate(155.615234 0)"/>
      <use xlink:href="#Helvetica-69" transform="translate(205.615234 0)"/>
      <use xlink:href="#Helvetica-73" transform="translate(227.832031 0)"/>
      <use xlink:href="#Helvetica-74" transform="translate(277.832031 0)"/>
      <use xlink:href="#Helvetica-65" transform="translate(305.615234 0)"/>
      <use xlink:href="#Helvetica-6e" transform="translate(361.230469 0)"/>
      <use xlink:href="#Helvetica-63" transform="translate(416.845703 0)"/>
      <use xlink:href="#Helvetica-65" transform="translate(466.845703 0)"/>
      <use xlink:href="#Helvetica-20" transform="translate(522.460938 0)"/>
      <use xlink:href="#Helvetica-74" transform="translate(550.244141 0)"/>
      <use xlink:href="#Helvetica-69" transform="translate(578.027344 0)"/>
      <use xlink:href="#Helvetica-6d" transform="translate(600.244141 0)"/>
      <use xlink:href="#Helvetica-65" transform="translate(683.544922 0)"/>
      <use xlink:href="#Helvetica-73" transform="translate(739.160156 0)"/>
      <use xlink:href="#Helvetica-20" transform="translate(789.160156 0)"/>
      <use xlink:href="#Helvetica-28" transform="translate(816.943359 0)"/>
      <use xlink:href="#Helvetica-64" transform="translate(850.244141 0)"/>
      <use xlink:href="#Helvetica-61" transform="translate(905.859375 0)"/>
      <use xlink:href="#Helvetica-79" transform="translate(961.474609 0)"/>
      <use xlink:href="#Helvetica-73" transform="translate(1011.474609 0)"/>
      <use xlink:href="#Helvetica-29" transform="translate(1061.474609 0)"/>
     </g>
    </g>
   </g>
   <g id="line2d_13">
    <path d="M 122.310241 175.367382 
L 127.366375 180.51933 
L 132.422508 185.671278 
L 137.478642 190.823226 
L 142.534775 195.975174 
L 147.590908 201.127122 
L 152.647042 206.27907 
L 157.703175 211.431018 
L 162.759309 216.582966 
L 167.815442 221.734914 
L 172.871576 226.886862 
L 177.927709 232.03881 
L 182.983843 237.190757 
L 188.039976 242.342705 
L 193.096109 247.494653 
L 198.152243 252.646601 
L 203.208376 257.798549 
L 208.26451 262.950497 
L 213.320643 268.102445 
L 218.376777 273.254393 
L 223.43291 278.406341 
L 228.489043 283.558289 
L 233.545177 288.710237 
L 238.60131 293.862185 
L 243.657444 299.014132 
L 248.713577 304.16608 
L 253.769711 309.318028 
L 258.825844 314.469976 
L 263.881977 319.621924 
L 268.938111 324.773872 
L 273.994244 329.92582 
L 279.050378 335.077768 
L 284.106511 340.229716 
L 289.162645 345.381664 
L 294.218778 350.533612 
L 299.274911 355.685559 
L 304.331045 360.837507 
L 309.387178 365.989455 
L 314.443312 371.141403 
L 319.499445 376.293351 
L 324.555579 381.445299 
L 329.611712 386.597247 
L 334.667845 391.749195 
L 339.723979 396.901143 
L 344.780112 402.053091 
L 349.836246 407.205039 
L 354.892379 412.356987 
L 359.948513 417.508934 
L 365.004646 422.660882 
L 370.060779 427.81283 
L 375.116913 432.964778 
L 380.173046 438.116726 
L 385.22918 443.268674 
L 390.285313 448.420622 
L 395.341447 453.57257 
L 400.39758 458.724518 
L 405.453713 463.876466 
L 410.509847 469.028414 
L 415.56598 474.180362 
L 420.622114 479.332309 
L 425.678247 484.484257 
L 430.734381 489.636205 
L 435.790514 494.788153 
L 440.846647 499.940101 
L 445.902781 505.092049 
L 450.958914 510.243997 
L 456.015048 515.395945 
L 461.071181 520.547893 
L 466.127315 525.699841 
L 471.183448 530.851789 
L 476.239581 536.003737 
L 481.295715 541.155684 
L 486.351848 546.307632 
L 491.407982 551.45958 
L 496.464115 556.611528 
L 501.520249 561.763476 
L 506.576382 566.915424 
L 511.632515 572.067372 
L 516.688649 577.21932 
L 521.744782 582.371268 
L 526.800916 587.523216 
L 531.857049 592.675164 
L 536.913183 597.827111 
L 541.969316 602.979059 
L 547.02545 608.131007 
L 552.081583 613.282955 
L 557.137716 618.434903 
L 562.19385 623.586851 
L 567.249983 628.738799 
L 572.306117 633.890747 
L 577.36225 639.042695 
L 582.418384 644.194643 
L 587.474517 649.346591 
L 592.53065 654.498539 
L 597.586784 659.650486 
L 602.642917 664.802434 
L 607.699051 669.954382 
L 612.755184 675.10633 
L 617.811318 680.258278 
L 622.867451 685.410226 
" clip-path="url(#p363dd693a8)" style="fill: none; stroke-dasharray: 3.7,1.6; stroke-dashoffset: 0; stroke: #4682b4"/>
   </g>
   <g id="patch_7">
    <path d="M 66.570938 667.431572 
L 66.570938 2.151572 
" style="fill: none; stroke: #000000; stroke-width: 0.8; stroke-linejoin: miter; stroke-linecap: square"/>
   </g>
   <g id="patch_8">
    <path d="M 736.170938 667.431572 
L 736.170938 2.151572 
" style="fill: none; stroke: #000000; stroke-width: 0.8; stroke-linejoin: miter; stroke-linecap: square"/>
   </g>
   <g id="patch_9">
    <path d="M 66.570938 667.431572 
L 736.170938 667.431572 
" style="fill: none; stroke: #000000; stroke-width: 0.8; stroke-linejoin: miter; stroke-linecap: square"/>
   </g>
   <g id="patch_10">
    <path d="M 66.570938 2.151572 
L 736.170938 2.151572 
" style="fill: none; stroke: #000000; stroke-width: 0.8; stroke-linejoin: miter; stroke-linecap: square"/>
   </g>
   <g id="text_14">
    <!-- r=-0.93, p=1.1e-11 -->
    <g transform="translate(200.490938 168.471572) scale(0.22 -0.22)">
     <defs>
      <path id="Helvetica-3d" d="M 3547 2569 
L 3547 2044 
L 288 2044 
L 288 2569 
L 3547 2569 
z
M 3547 1228 
L 3547 694 
L 288 694 
L 288 1228 
L 3547 1228 
z
" transform="scale(0.015625)"/>
      <path id="Helvetica-2d" d="M 266 2072 
L 1834 2072 
L 1834 1494 
L 266 1494 
L 266 2072 
z
" transform="scale(0.015625)"/>
      <path id="Helvetica-2e" d="M 547 681 
L 1200 681 
L 1200 0 
L 547 0 
L 547 681 
z
" transform="scale(0.015625)"/>
      <path id="Helvetica-39" d="M 850 1081 
Q 875 616 1209 438 
Q 1381 344 1597 344 
Q 2000 344 2284 680 
Q 2569 1016 2688 2044 
Q 2500 1747 2223 1626 
Q 1947 1506 1628 1506 
Q 981 1506 604 1909 
Q 228 2313 228 2947 
Q 228 3556 600 4018 
Q 972 4481 1697 4481 
Q 2675 4481 3047 3600 
Q 3253 3116 3253 2388 
Q 3253 1566 3006 931 
Q 2597 -125 1619 -125 
Q 963 -125 622 219 
Q 281 563 281 1081 
L 850 1081 
z
M 1703 2000 
Q 2038 2000 2314 2220 
Q 2591 2441 2591 2991 
Q 2591 3484 2342 3726 
Q 2094 3969 1709 3969 
Q 1297 3969 1055 3692 
Q 813 3416 813 2953 
Q 813 2516 1025 2258 
Q 1238 2000 1703 2000 
z
" transform="scale(0.015625)"/>
      <path id="Helvetica-2c" d="M 531 -653 
Q 747 -616 834 -350 
Q 881 -209 881 -78 
Q 881 -56 879 -39 
Q 878 -22 872 0 
L 531 0 
L 531 681 
L 1200 681 
L 1200 50 
Q 1200 -322 1050 -603 
Q 900 -884 531 -950 
L 531 -653 
z
" transform="scale(0.015625)"/>
      <path id="Helvetica-70" d="M 1825 378 
Q 2219 378 2480 708 
Q 2741 1038 2741 1694 
Q 2741 2094 2625 2381 
Q 2406 2934 1825 2934 
Q 1241 2934 1025 2350 
Q 909 2038 909 1556 
Q 909 1169 1025 897 
Q 1244 378 1825 378 
z
M 369 3331 
L 916 3331 
L 916 2888 
Q 1084 3116 1284 3241 
Q 1569 3428 1953 3428 
Q 2522 3428 2919 2992 
Q 3316 2556 3316 1747 
Q 3316 653 2744 184 
Q 2381 -113 1900 -113 
Q 1522 -113 1266 53 
Q 1116 147 931 375 
L 931 -1334 
L 369 -1334 
L 369 3331 
z
" transform="scale(0.015625)"/>
     </defs>
     <use xlink:href="#Helvetica-72"/>
     <use xlink:href="#Helvetica-3d" transform="translate(33.300781 0)"/>
     <use xlink:href="#Helvetica-2d" transform="translate(91.699219 0)"/>
     <use xlink:href="#Helvetica-30" transform="translate(125 0)"/>
     <use xlink:href="#Helvetica-2e" transform="translate(180.615234 0)"/>
     <use xlink:href="#Helvetica-39" transform="translate(208.398438 0)"/>
     <use xlink:href="#Helvetica-33" transform="translate(264.013672 0)"/>
     <use xlink:href="#Helvetica-2c" transform="translate(319.628906 0)"/>
     <use xlink:href="#Helvetica-20" transform="translate(347.412109 0)"/>
     <use xlink:href="#Helvetica-70" transform="translate(375.195312 0)"/>
     <use xlink:href="#Helvetica-3d" transform="translate(430.810547 0)"/>
     <use xlink:href="#Helvetica-31" transform="translate(489.208984 0)"/>
     <use xlink:href="#Helvetica-2e" transform="translate(544.824219 0)"/>
     <use xlink:href="#Helvetica-31" transform="translate(572.607422 0)"/>
     <use xlink:href="#Helvetica-65" transform="translate(628.222656 0)"/>
     <use xlink:href="#Helvetica-2d" transform="translate(683.837891 0)"/>
     <use xlink:href="#Helvetica-31" transform="translate(717.138672 0)"/>
     <use xlink:href="#Helvetica-31" transform="translate(772.753906 0)"/>
    </g>
   </g>
   <g id="PathCollection_1">
    <defs>
     <path id="ma5849f8b6e" d="M 0 5.31126 
C 1.408563 5.31126 2.759624 4.751632 3.755628 3.755628 
C 4.751632 2.759624 5.31126 1.408563 5.31126 0 
C 5.31126 -1.408563 4.751632 -2.759624 3.755628 -3.755628 
C 2.759624 -4.751632 1.408563 -5.31126 0 -5.31126 
C -1.408563 -5.31126 -2.759624 -4.751632 -3.755628 -3.755628 
C -4.751632 -2.759624 -5.31126 -1.408563 -5.31126 0 
C -5.31126 1.408563 -4.751632 2.759624 -3.755628 3.755628 
C -2.759624 4.751632 -1.408563 5.31126 0 5.31126 
z
" style="stroke: #000000; stroke-width: 2"/>
    </defs>
    <g clip-path="url(#p363dd693a8)">
     <use xlink:href="#ma5849f8b6e" x="122.310241" y="193.504232" style="fill: #e15759; stroke: #000000; stroke-width: 2"/>
    </g>
   </g>
   <g id="PathCollection_2">
    <defs>
     <path id="m2492c7001b" d="M 0 17.899667 
C 4.747047 17.899667 9.300307 16.013646 12.656976 12.656976 
C 16.013646 9.300307 17.899667 4.747047 17.899667 0 
C 17.899667 -4.747047 16.013646 -9.300307 12.656976 -12.656976 
C 9.300307 -16.013646 4.747047 -17.899667 0 -17.899667 
C -4.747047 -17.899667 -9.300307 -16.013646 -12.656976 -12.656976 
C -16.013646 -9.300307 -17.899667 -4.747047 -17.899667 0 
C -17.899667 4.747047 -16.013646 9.300307 -12.656976 12.656976 
C -9.300307 16.013646 -4.747047 17.899667 0 17.899667 
z
" style="stroke: #000000; stroke-width: 2"/>
    </defs>
    <g clip-path="url(#p363dd693a8)">
     <use xlink:href="#m2492c7001b" x="122.310241" y="68.105651" style="fill: #e15759; stroke: #000000; stroke-width: 2"/>
    </g>
   </g>
   <g id="PathCollection_3">
    <g clip-path="url(#p363dd693a8)">
     <use xlink:href="#ma5849f8b6e" x="452.761867" y="563.342575" style="fill: #e15759; stroke: #000000; stroke-width: 2"/>
    </g>
   </g>
   <g id="PathCollection_4">
    <g clip-path="url(#p363dd693a8)">
     <use xlink:href="#ma5849f8b6e" x="476.708298" y="587.751852" style="fill: #e15759; stroke: #000000; stroke-width: 2"/>
    </g>
   </g>
   <g id="PathCollection_5">
    <g clip-path="url(#p363dd693a8)">
     <use xlink:href="#ma5849f8b6e" x="530.148874" y="609.22572" style="fill: #e15759; stroke: #000000; stroke-width: 2"/>
    </g>
   </g>
   <g id="PathCollection_6">
    <g clip-path="url(#p363dd693a8)">
     <use xlink:href="#ma5849f8b6e" x="590.713623" y="578.562132" style="fill: #e15759; stroke: #000000; stroke-width: 2"/>
    </g>
   </g>
   <g id="PathCollection_7">
    <defs>
     <path id="m8e5245873c" d="M 0 5.31126 
C 1.408563 5.31126 2.759624 4.751632 3.755628 3.755628 
C 4.751632 2.759624 5.31126 1.408563 5.31126 0 
C 5.31126 -1.408563 4.751632 -2.759624 3.755628 -3.755628 
C 2.759624 -4.751632 1.408563 -5.31126 0 -5.31126 
C -1.408563 -5.31126 -2.759624 -4.751632 -3.755628 -3.755628 
C -4.751632 -2.759624 -5.31126 -1.408563 -5.31126 0 
C -5.31126 1.408563 -4.751632 2.759624 -3.755628 3.755628 
C -2.759624 4.751632 -1.408563 5.31126 0 5.31126 
z
" style="stroke: #000000; stroke-width: 2"/>
    </defs>
    <g clip-path="url(#p363dd693a8)">
     <use xlink:href="#m8e5245873c" x="572.479117" y="647.974188" style="fill: #b6992d; stroke: #000000; stroke-width: 2"/>
    </g>
   </g>
   <g id="PathCollection_8">
    <defs>
     <path id="mbc8f442914" d="M 0 5.31126 
C 1.408563 5.31126 2.759624 4.751632 3.755628 3.755628 
C 4.751632 2.759624 5.31126 1.408563 5.31126 0 
C 5.31126 -1.408563 4.751632 -2.759624 3.755628 -3.755628 
C 2.759624 -4.751632 1.408563 -5.31126 0 -5.31126 
C -1.408563 -5.31126 -2.759624 -4.751632 -3.755628 -3.755628 
C -4.751632 -2.759624 -5.31126 -1.408563 -5.31126 0 
C -5.31126 1.408563 -4.751632 2.759624 -3.755628 3.755628 
C -2.759624 4.751632 -1.408563 5.31126 0 5.31126 
z
" style="stroke: #000000; stroke-width: 2"/>
    </defs>
    <g clip-path="url(#p363dd693a8)">
     <use xlink:href="#mbc8f442914" x="492.680838" y="604.033115" style="fill: #f1ce63; stroke: #000000; stroke-width: 2"/>
    </g>
   </g>
   <g id="PathCollection_9">
    <g clip-path="url(#p363dd693a8)">
     <use xlink:href="#ma5849f8b6e" x="510.988084" y="629.294135" style="fill: #e15759; stroke: #000000; stroke-width: 2"/>
    </g>
   </g>
   <g id="PathCollection_10">
    <defs>
     <path id="m8c31585c94" d="M 0 6.316188 
C 1.675073 6.316188 3.281764 5.650674 4.466219 4.466219 
C 5.650674 3.281764 6.316188 1.675073 6.316188 0 
C 6.316188 -1.675073 5.650674 -3.281764 4.466219 -4.466219 
C 3.281764 -5.650674 1.675073 -6.316188 0 -6.316188 
C -1.675073 -6.316188 -3.281764 -5.650674 -4.466219 -4.466219 
C -5.650674 -3.281764 -6.316188 -1.675073 -6.316188 0 
C -6.316188 1.675073 -5.650674 3.281764 -4.466219 4.466219 
C -3.281764 5.650674 -1.675073 6.316188 0 6.316188 
z
" style="stroke: #000000; stroke-width: 2"/>
    </defs>
    <g clip-path="url(#p363dd693a8)">
     <use xlink:href="#m8c31585c94" x="420.806008" y="482.36961" style="fill: #e15759; stroke: #000000; stroke-width: 2"/>
    </g>
   </g>
   <g id="PathCollection_11">
    <g clip-path="url(#p363dd693a8)">
     <use xlink:href="#ma5849f8b6e" x="475.377301" y="557.795452" style="fill: #e15759; stroke: #000000; stroke-width: 2"/>
    </g>
   </g>
   <g id="PathCollection_12">
    <g clip-path="url(#p363dd693a8)">
     <use xlink:href="#ma5849f8b6e" x="471.648142" y="553.994214" style="fill: #e15759; stroke: #000000; stroke-width: 2"/>
    </g>
   </g>
   <g id="PathCollection_13">
    <g clip-path="url(#p363dd693a8)">
     <use xlink:href="#ma5849f8b6e" x="466.236775" y="502.278778" style="fill: #e15759; stroke: #000000; stroke-width: 2"/>
    </g>
   </g>
   <g id="PathCollection_14">
    <defs>
     <path id="m83e88494a2" d="M 0 6.316188 
C 1.675073 6.316188 3.281764 5.650674 4.466219 4.466219 
C 5.650674 3.281764 6.316188 1.675073 6.316188 0 
C 6.316188 -1.675073 5.650674 -3.281764 4.466219 -4.466219 
C 3.281764 -5.650674 1.675073 -6.316188 0 -6.316188 
C -1.675073 -6.316188 -3.281764 -5.650674 -4.466219 -4.466219 
C -5.650674 -3.281764 -6.316188 -1.675073 -6.316188 0 
C -6.316188 1.675073 -5.650674 3.281764 -4.466219 4.466219 
C -3.281764 5.650674 -1.675073 6.316188 0 6.316188 
z
" style="stroke: #000000; stroke-width: 2"/>
    </defs>
    <g clip-path="url(#p363dd693a8)">
     <use xlink:href="#m83e88494a2" x="506.67818" y="602.901177" style="fill: #a0cbe8; stroke: #000000; stroke-width: 2"/>
    </g>
   </g>
   <g id="PathCollection_15">
    <g clip-path="url(#p363dd693a8)">
     <use xlink:href="#ma5849f8b6e" x="433.336745" y="528.142172" style="fill: #e15759; stroke: #000000; stroke-width: 2"/>
    </g>
   </g>
   <g id="PathCollection_16">
    <defs>
     <path id="m719e78e9ac" d="M 0 5.31126 
C 1.408563 5.31126 2.759624 4.751632 3.755628 3.755628 
C 4.751632 2.759624 5.31126 1.408563 5.31126 0 
C 5.31126 -1.408563 4.751632 -2.759624 3.755628 -3.755628 
C 2.759624 -4.751632 1.408563 -5.31126 0 -5.31126 
C -1.408563 -5.31126 -2.759624 -4.751632 -3.755628 -3.755628 
C -4.751632 -2.759624 -5.31126 -1.408563 -5.31126 0 
C -5.31126 1.408563 -4.751632 2.759624 -3.755628 3.755628 
C -2.759624 4.751632 -1.408563 5.31126 0 5.31126 
z
" style="stroke: #000000; stroke-width: 2"/>
    </defs>
    <g clip-path="url(#p363dd693a8)">
     <use xlink:href="#m719e78e9ac" x="553.700495" y="633.232556" style="fill: #a0cbe8; stroke: #000000; stroke-width: 2"/>
    </g>
   </g>
   <g id="PathCollection_17">
    <defs>
     <path id="m5bef578b01" d="M 0 6.316188 
C 1.675073 6.316188 3.281764 5.650674 4.466219 4.466219 
C 5.650674 3.281764 6.316188 1.675073 6.316188 0 
C 6.316188 -1.675073 5.650674 -3.281764 4.466219 -4.466219 
C 3.281764 -5.650674 1.675073 -6.316188 0 -6.316188 
C -1.675073 -6.316188 -3.281764 -5.650674 -4.466219 -4.466219 
C -5.650674 -3.281764 -6.316188 -1.675073 -6.316188 0 
C -6.316188 1.675073 -5.650674 3.281764 -4.466219 4.466219 
C -3.281764 5.650674 -1.675073 6.316188 0 6.316188 
z
" style="stroke: #000000; stroke-width: 2"/>
    </defs>
    <g clip-path="url(#p363dd693a8)">
     <use xlink:href="#m5bef578b01" x="622.867451" y="558.538039" style="fill: #b6992d; stroke: #000000; stroke-width: 2"/>
    </g>
   </g>
   <g id="PathCollection_18">
    <g clip-path="url(#p363dd693a8)">
     <use xlink:href="#ma5849f8b6e" x="570.631742" y="657.090981" style="fill: #e15759; stroke: #000000; stroke-width: 2"/>
    </g>
   </g>
   <g id="PathCollection_19">
    <g clip-path="url(#p363dd693a8)">
     <use xlink:href="#ma5849f8b6e" x="551.730734" y="637.824648" style="fill: #e15759; stroke: #000000; stroke-width: 2"/>
    </g>
   </g>
   <g id="PathCollection_20">
    <g clip-path="url(#p363dd693a8)">
     <use xlink:href="#ma5849f8b6e" x="475.377301" y="531.395751" style="fill: #e15759; stroke: #000000; stroke-width: 2"/>
    </g>
   </g>
   <g id="PathCollection_21">
    <defs>
     <path id="mb4503d1679" d="M 0 5.31126 
C 1.408563 5.31126 2.759624 4.751632 3.755628 3.755628 
C 4.751632 2.759624 5.31126 1.408563 5.31126 0 
C 5.31126 -1.408563 4.751632 -2.759624 3.755628 -3.755628 
C 2.759624 -4.751632 1.408563 -5.31126 0 -5.31126 
C -1.408563 -5.31126 -2.759624 -4.751632 -3.755628 -3.755628 
C -4.751632 -2.759624 -5.31126 -1.408563 -5.31126 0 
C -5.31126 1.408563 -4.751632 2.759624 -3.755628 3.755628 
C -2.759624 4.751632 -1.408563 5.31126 0 5.31126 
z
" style="stroke: #000000; stroke-width: 2"/>
    </defs>
    <g clip-path="url(#p363dd693a8)">
     <use xlink:href="#mb4503d1679" x="595.633404" y="552.777354" style="fill: #86bcb6; stroke: #000000; stroke-width: 2"/>
    </g>
   </g>
   <g id="PathCollection_22">
    <g clip-path="url(#p363dd693a8)">
     <use xlink:href="#m8c31585c94" x="489.50493" y="532.596594" style="fill: #e15759; stroke: #000000; stroke-width: 2"/>
    </g>
   </g>
   <g id="PathCollection_23">
    <g clip-path="url(#p363dd693a8)">
     <use xlink:href="#m8e5245873c" x="573.578472" y="660.094667" style="fill: #b6992d; stroke: #000000; stroke-width: 2"/>
    </g>
   </g>
   <g id="PathCollection_24">
    <g clip-path="url(#p363dd693a8)">
     <use xlink:href="#ma5849f8b6e" x="530.148874" y="611.425695" style="fill: #e15759; stroke: #000000; stroke-width: 2"/>
    </g>
   </g>
   <g id="PathCollection_25">
    <g clip-path="url(#p363dd693a8)">
     <use xlink:href="#m8e5245873c" x="608.480015" y="653.871273" style="fill: #b6992d; stroke: #000000; stroke-width: 2"/>
    </g>
   </g>
   <g id="PathCollection_26">
    <g clip-path="url(#p363dd693a8)">
     <use xlink:href="#ma5849f8b6e" x="578.10953" y="618.513825" style="fill: #e15759; stroke: #000000; stroke-width: 2"/>
    </g>
   </g>
  </g>
 </g>
 <defs>
  <clipPath id="p363dd693a8">
   <rect x="66.570938" y="2.151572" width="669.6" height="665.28"/>
  </clipPath>
 </defs>
</svg>
