<?xml version="1.0" encoding="UTF-8"?>
<svg id="Layer_1" xmlns="http://www.w3.org/2000/svg" xmlns:xlink="http://www.w3.org/1999/xlink" version="1.1" viewBox="0 0 857.26 424.14">
  <!-- Generator: Adobe Illustrator 29.8.1, SVG Export Plug-In . SVG Version: 2.1.1 Build 2)  -->
  <defs>
    <style>
      .st0, .st1, .st2, .st3, .st4, .st5, .st6, .st7, .st8, .st9, .st10, .st11, .st12, .st13, .st14, .st15, .st16, .st17, .st18, .st19, .st20 {
        stroke-opacity: .9;
      }

      .st0, .st2, .st3, .st4, .st5, .st6, .st7, .st8, .st9, .st10, .st11, .st12, .st13, .st14, .st15, .st16, .st17, .st18, .st19, .st20 {
        fill-opacity: .9;
      }

      .st0, .st2, .st5, .st6, .st7, .st8, .st12, .st14, .st15, .st17, .st18, .st20 {
        stroke-width: 2.2px;
      }

      .st0, .st5, .st6, .st21, .st20 {
        stroke: #4e79a7;
      }

      .st0, .st9, .st22, .st11, .st18 {
        fill: #e15759;
      }

      .st23, .st1, .st24, .st25, .st26, .st21 {
        fill: none;
      }

      .st1 {
        stroke-dasharray: 5.55 2.4;
        stroke-width: 1.5px;
      }

      .st1, .st27 {
        stroke-linejoin: round;
      }

      .st1, .st27, .st26 {
        stroke: #000;
      }

      .st2, .st24, .st8, .st12, .st14 {
        stroke: #e15759;
      }

      .st2, .st28, .st16, .st19, .st20 {
        fill: #f28e2b;
      }

      .st3, .st4, .st9, .st10, .st11, .st13, .st16, .st19 {
        stroke-width: .9px;
      }

      .st3, .st4, .st9, .st16 {
        stroke: #59a14f;
      }

      .st3, .st6, .st7, .st14, .st29 {
        fill: #a0cbe8;
      }

      .st4, .st12, .st13, .st17, .st30 {
        fill: #4e79a7;
      }

      .st5, .st8, .st10, .st31, .st15 {
        fill: #59a14f;
      }

      .st24, .st25, .st21 {
        stroke-width: 3.5px;
      }

      .st7, .st15, .st25, .st17, .st18 {
        stroke: #f28e2b;
      }

      .st10, .st11, .st13, .st19 {
        stroke: #a0cbe8;
      }

      .st32 {
        clip-path: url(#clippath-17);
      }

      .st33 {
        clip-path: url(#clippath-19);
      }

      .st34 {
        clip-path: url(#clippath-11);
      }

      .st35 {
        clip-path: url(#clippath-16);
      }

      .st36 {
        clip-path: url(#clippath-18);
      }

      .st37 {
        clip-path: url(#clippath-10);
      }

      .st38 {
        clip-path: url(#clippath-15);
      }

      .st39 {
        clip-path: url(#clippath-13);
      }

      .st40 {
        clip-path: url(#clippath-14);
      }

      .st41 {
        clip-path: url(#clippath-12);
      }

      .st42 {
        clip-path: url(#clippath-20);
      }

      .st43 {
        clip-path: url(#clippath-1);
      }

      .st44 {
        clip-path: url(#clippath-3);
      }

      .st45 {
        clip-path: url(#clippath-4);
      }

      .st46 {
        clip-path: url(#clippath-2);
      }

      .st47 {
        clip-path: url(#clippath-7);
      }

      .st48 {
        clip-path: url(#clippath-6);
      }

      .st49 {
        clip-path: url(#clippath-9);
      }

      .st50 {
        clip-path: url(#clippath-8);
      }

      .st51 {
        clip-path: url(#clippath-5);
      }

      .st52 {
        fill: #fff;
      }

      .st27, .st26 {
        stroke-width: .8px;
      }

      .st26 {
        stroke-linecap: square;
      }

      .st53 {
        clip-path: url(#clippath);
      }
    </style>
    <clipPath id="clippath">
      <rect class="st23" x="50.94" y="31.56" width="761.52" height="360.96"/>
    </clipPath>
    <clipPath id="clippath-1">
      <rect class="st23" x="50.94" y="31.56" width="761.52" height="360.96"/>
    </clipPath>
    <clipPath id="clippath-2">
      <rect class="st23" x="50.94" y="31.56" width="761.52" height="360.96"/>
    </clipPath>
    <clipPath id="clippath-3">
      <rect class="st23" x="50.94" y="31.56" width="761.52" height="360.96"/>
    </clipPath>
    <clipPath id="clippath-4">
      <rect class="st23" x="50.94" y="31.56" width="761.52" height="360.96"/>
    </clipPath>
    <clipPath id="clippath-5">
      <rect class="st23" x="50.94" y="31.56" width="761.52" height="360.96"/>
    </clipPath>
    <clipPath id="clippath-6">
      <rect class="st23" x="50.94" y="31.56" width="761.52" height="360.96"/>
    </clipPath>
    <clipPath id="clippath-7">
      <rect class="st23" x="50.94" y="31.56" width="761.52" height="360.96"/>
    </clipPath>
    <clipPath id="clippath-8">
      <rect class="st23" x="50.94" y="31.56" width="761.52" height="360.96"/>
    </clipPath>
    <clipPath id="clippath-9">
      <rect class="st23" x="50.94" y="31.56" width="761.52" height="360.96"/>
    </clipPath>
    <clipPath id="clippath-10">
      <rect class="st23" x="50.94" y="31.56" width="761.52" height="360.96"/>
    </clipPath>
    <clipPath id="clippath-11">
      <rect class="st23" x="50.94" y="31.56" width="761.52" height="360.96"/>
    </clipPath>
    <clipPath id="clippath-12">
      <rect class="st23" x="50.94" y="31.56" width="761.52" height="360.96"/>
    </clipPath>
    <clipPath id="clippath-13">
      <rect class="st23" x="50.94" y="31.56" width="761.52" height="360.96"/>
    </clipPath>
    <clipPath id="clippath-14">
      <rect class="st23" x="50.94" y="31.56" width="761.52" height="360.96"/>
    </clipPath>
    <clipPath id="clippath-15">
      <rect class="st23" x="50.94" y="31.56" width="761.52" height="360.96"/>
    </clipPath>
    <clipPath id="clippath-16">
      <rect class="st23" x="50.94" y="31.56" width="761.52" height="360.96"/>
    </clipPath>
    <clipPath id="clippath-17">
      <rect class="st23" x="50.94" y="31.56" width="761.52" height="360.96"/>
    </clipPath>
    <clipPath id="clippath-18">
      <rect class="st23" x="50.94" y="31.56" width="761.52" height="360.96"/>
    </clipPath>
    <clipPath id="clippath-19">
      <rect class="st23" x="50.94" y="31.56" width="761.52" height="360.96"/>
    </clipPath>
    <clipPath id="clippath-20">
      <rect class="st23" x="50.94" y="31.56" width="761.52" height="360.96"/>
    </clipPath>
  </defs>
  <g id="figure_1">
    <g id="patch_1">
      <path class="st52" d="M0,424.14h857.26V0H0v424.14Z"/>
    </g>
    <g id="axes_1">
      <g id="patch_2">
        <path class="st52" d="M50.94,392.52h761.51V31.56H50.94v360.96Z"/>
      </g>
      <g id="matplotlib.axis_1">
        <g id="xtick_1">
          <g id="line2d_1">
            <path id="m3c56409a2b" class="st27" d="M50.94,392.52v3.5"/>
          </g>
          <g id="text_1">
            <g>
              <path id="DejaVuSans-32" d="M16.79,411.7h6.2v1.49h-8.33v-1.49c.67-.7,1.59-1.63,2.75-2.81,1.16-1.18,1.9-1.93,2.19-2.28.57-.64.96-1.18,1.19-1.62.23-.44.34-.88.34-1.31,0-.7-.24-1.27-.73-1.7-.49-.44-1.13-.66-1.91-.66-.56,0-1.14.1-1.76.29-.62.19-1.28.49-1.98.88v-1.79c.71-.29,1.38-.5,2-.65.62-.15,1.19-.22,1.71-.22,1.36,0,2.44.34,3.25,1.02.81.68,1.21,1.59,1.21,2.72,0,.54-.1,1.05-.3,1.54-.2.48-.57,1.05-1.1,1.71-.15.17-.61.66-1.4,1.47-.78.81-1.89,1.95-3.32,3.41Z"/>
              <path id="DejaVuSans-30" d="M30.51,401.24c-.91,0-1.6.45-2.06,1.35-.46.9-.69,2.25-.69,4.06s.23,3.15.69,4.05c.46.9,1.15,1.35,2.06,1.35s1.61-.45,2.07-1.35c.46-.9.69-2.25.69-4.05s-.23-3.16-.69-4.06c-.46-.9-1.15-1.35-2.07-1.35ZM30.51,399.83c1.47,0,2.6.58,3.37,1.75.78,1.16,1.16,2.85,1.16,5.07s-.39,3.9-1.16,5.06c-.78,1.16-1.9,1.74-3.37,1.74s-2.59-.58-3.37-1.74c-.78-1.16-1.16-2.85-1.16-5.06s.39-3.9,1.16-5.07c.78-1.16,1.9-1.75,3.37-1.75Z"/>
              <path id="DejaVuSans-321" data-name="DejaVuSans-32" d="M39.7,411.7h6.2v1.49h-8.33v-1.49c.67-.7,1.59-1.63,2.75-2.81,1.16-1.18,1.9-1.93,2.19-2.28.57-.64.96-1.18,1.19-1.62.23-.44.34-.88.34-1.31,0-.7-.24-1.27-.73-1.7-.49-.44-1.13-.66-1.91-.66-.56,0-1.14.1-1.76.29-.62.19-1.28.49-1.98.88v-1.79c.71-.29,1.38-.5,2-.65.62-.15,1.19-.22,1.71-.22,1.36,0,2.44.34,3.25,1.02.81.68,1.21,1.59,1.21,2.72,0,.54-.1,1.05-.3,1.54-.2.48-.57,1.05-1.1,1.71-.15.17-.61.66-1.4,1.47-.78.81-1.89,1.95-3.32,3.41Z"/>
              <path id="DejaVuSans-34" d="M54.5,401.62l-4.48,7.01h4.48v-7.01ZM54.03,400.07h2.23v8.55h1.87v1.48h-1.87v3.09h-1.77v-3.09h-5.92v-1.71l5.46-8.32Z"/>
              <path id="DejaVuSans-2d" d="M60.03,407.54h4.74v1.44h-4.74v-1.44Z"/>
              <path id="DejaVuSans-301" data-name="DejaVuSans-30" d="M71.36,401.24c-.91,0-1.6.45-2.06,1.35-.46.9-.69,2.25-.69,4.06s.23,3.15.69,4.05c.46.9,1.15,1.35,2.06,1.35s1.61-.45,2.07-1.35c.46-.9.69-2.25.69-4.05s-.23-3.16-.69-4.06c-.46-.9-1.15-1.35-2.07-1.35ZM71.36,399.83c1.47,0,2.6.58,3.37,1.75.78,1.16,1.16,2.85,1.16,5.07s-.39,3.9-1.16,5.06c-.78,1.16-1.9,1.74-3.37,1.74s-2.59-.58-3.37-1.74c-.78-1.16-1.16-2.85-1.16-5.06s.39-3.9,1.16-5.07c.78-1.16,1.9-1.75,3.37-1.75Z"/>
              <path id="DejaVuSans-38" d="M82.82,406.96c-.84,0-1.51.23-1.99.68-.48.45-.72,1.07-.72,1.86s.24,1.41.72,1.86c.48.45,1.15.68,1.99.68s1.51-.23,1.99-.68c.49-.46.73-1.08.73-1.86s-.24-1.41-.73-1.86c-.48-.45-1.15-.68-2-.68ZM81.04,406.21c-.76-.19-1.35-.54-1.78-1.06-.42-.52-.64-1.16-.64-1.91,0-1.05.37-1.88,1.12-2.49.75-.61,1.77-.91,3.07-.91s2.33.3,3.08.91,1.12,1.44,1.12,2.49c0,.75-.21,1.39-.64,1.91-.42.52-1.01.88-1.77,1.06.86.2,1.52.59,2,1.17.48.58.72,1.29.72,2.12,0,1.27-.39,2.25-1.16,2.93-.78.68-1.89,1.02-3.34,1.02s-2.56-.34-3.34-1.02c-.78-.68-1.16-1.66-1.16-2.93,0-.84.24-1.54.72-2.12.48-.58,1.15-.97,2.01-1.17ZM80.39,403.4c0,.68.21,1.21.64,1.59.43.38,1.02.57,1.79.57s1.36-.19,1.79-.57c.43-.38.65-.91.65-1.59s-.22-1.21-.65-1.59c-.43-.38-1.03-.57-1.79-.57s-1.36.19-1.79.57c-.42.38-.64.91-.64,1.59Z"/>
            </g>
          </g>
        </g>
        <g id="xtick_2">
          <g id="line2d_2">
            <path id="m3c56409a2b1" data-name="m3c56409a2b" class="st27" d="M178.21,392.52v3.5"/>
          </g>
          <g id="text_2">
            <g>
              <path id="DejaVuSans-322" data-name="DejaVuSans-32" d="M144.06,411.7h6.2v1.49h-8.33v-1.49c.67-.7,1.59-1.63,2.75-2.81,1.16-1.18,1.9-1.93,2.19-2.28.57-.64.96-1.18,1.19-1.62.23-.44.34-.88.34-1.31,0-.7-.24-1.27-.73-1.7-.49-.44-1.13-.66-1.91-.66-.56,0-1.14.1-1.76.29-.62.19-1.28.49-1.98.88v-1.79c.71-.29,1.38-.5,2-.65.62-.15,1.19-.22,1.71-.22,1.36,0,2.44.34,3.25,1.02.81.68,1.21,1.59,1.21,2.72,0,.54-.1,1.05-.3,1.54-.2.48-.57,1.05-1.1,1.71-.15.17-.61.66-1.4,1.47-.78.81-1.89,1.95-3.32,3.41Z"/>
              <path id="DejaVuSans-302" data-name="DejaVuSans-30" d="M157.78,401.24c-.91,0-1.6.45-2.06,1.35-.46.9-.69,2.25-.69,4.06s.23,3.15.69,4.05c.46.9,1.15,1.35,2.06,1.35s1.61-.45,2.07-1.35c.46-.9.69-2.25.69-4.05s-.23-3.16-.69-4.06c-.46-.9-1.15-1.35-2.07-1.35ZM157.78,399.83c1.47,0,2.6.58,3.37,1.75.78,1.16,1.16,2.85,1.16,5.07s-.39,3.9-1.16,5.06c-.78,1.16-1.9,1.74-3.37,1.74s-2.59-.58-3.37-1.74c-.78-1.16-1.16-2.85-1.16-5.06s.39-3.9,1.16-5.07c.78-1.16,1.9-1.75,3.37-1.75Z"/>
              <path id="DejaVuSans-323" data-name="DejaVuSans-32" d="M166.96,411.7h6.2v1.49h-8.33v-1.49c.67-.7,1.59-1.63,2.75-2.81,1.16-1.18,1.9-1.93,2.19-2.28.57-.64.96-1.18,1.19-1.62.23-.44.34-.88.34-1.31,0-.7-.24-1.27-.73-1.7-.49-.44-1.13-.66-1.91-.66-.56,0-1.14.1-1.76.29-.62.19-1.28.49-1.98.88v-1.79c.71-.29,1.38-.5,2-.65.62-.15,1.19-.22,1.71-.22,1.36,0,2.44.34,3.25,1.02.81.68,1.21,1.59,1.21,2.72,0,.54-.1,1.05-.3,1.54-.2.48-.57,1.05-1.1,1.71-.15.17-.61.66-1.4,1.47-.78.81-1.89,1.95-3.32,3.41Z"/>
              <path id="DejaVuSans-341" data-name="DejaVuSans-34" d="M181.77,401.62l-4.48,7.01h4.48v-7.01ZM181.3,400.07h2.23v8.55h1.87v1.48h-1.87v3.09h-1.77v-3.09h-5.92v-1.71l5.46-8.32Z"/>
              <path id="DejaVuSans-2d1" data-name="DejaVuSans-2d" d="M187.3,407.54h4.74v1.44h-4.74v-1.44Z"/>
              <path id="DejaVuSans-31" d="M195.14,411.7h2.9v-10.01l-3.16.63v-1.62l3.14-.63h1.77v11.63h2.9v1.49h-7.56v-1.49Z"/>
              <path id="DejaVuSans-303" data-name="DejaVuSans-30" d="M210.08,401.24c-.91,0-1.6.45-2.06,1.35-.46.9-.69,2.25-.69,4.06s.23,3.15.69,4.05c.46.9,1.15,1.35,2.06,1.35s1.61-.45,2.07-1.35c.46-.9.69-2.25.69-4.05s-.23-3.16-.69-4.06c-.46-.9-1.15-1.35-2.07-1.35ZM210.08,399.83c1.47,0,2.6.58,3.37,1.75.78,1.16,1.16,2.85,1.16,5.07s-.39,3.9-1.16,5.06c-.78,1.16-1.9,1.74-3.37,1.74s-2.59-.58-3.37-1.74c-.78-1.16-1.16-2.85-1.16-5.06s.39-3.9,1.16-5.07c.78-1.16,1.9-1.75,3.37-1.75Z"/>
            </g>
          </g>
        </g>
        <g id="xtick_3">
          <g id="line2d_3">
            <path id="m3c56409a2b2" data-name="m3c56409a2b" class="st27" d="M305.48,392.52v3.5"/>
          </g>
          <g id="text_3">
            <g>
              <path id="DejaVuSans-324" data-name="DejaVuSans-32" d="M271.33,411.7h6.2v1.49h-8.33v-1.49c.67-.7,1.59-1.63,2.75-2.81,1.16-1.18,1.9-1.93,2.19-2.28.57-.64.96-1.18,1.19-1.62.23-.44.34-.88.34-1.31,0-.7-.24-1.27-.73-1.7-.49-.44-1.13-.66-1.91-.66-.56,0-1.14.1-1.76.29-.62.19-1.28.49-1.98.88v-1.79c.71-.29,1.38-.5,2-.65.62-.15,1.19-.22,1.71-.22,1.36,0,2.44.34,3.25,1.02.81.68,1.21,1.59,1.21,2.72,0,.54-.1,1.05-.3,1.54-.2.48-.57,1.05-1.1,1.71-.15.17-.61.66-1.4,1.47-.78.81-1.89,1.95-3.32,3.41Z"/>
              <path id="DejaVuSans-304" data-name="DejaVuSans-30" d="M285.05,401.24c-.91,0-1.6.45-2.06,1.35-.46.9-.69,2.25-.69,4.06s.23,3.15.69,4.05c.46.9,1.15,1.35,2.06,1.35s1.61-.45,2.07-1.35c.46-.9.69-2.25.69-4.05s-.23-3.16-.69-4.06c-.46-.9-1.15-1.35-2.07-1.35ZM285.05,399.83c1.47,0,2.6.58,3.37,1.75.78,1.16,1.16,2.85,1.16,5.07s-.39,3.9-1.16,5.06c-.78,1.16-1.9,1.74-3.37,1.74s-2.59-.58-3.37-1.74c-.78-1.16-1.16-2.85-1.16-5.06s.39-3.9,1.16-5.07c.78-1.16,1.9-1.75,3.37-1.75Z"/>
              <path id="DejaVuSans-325" data-name="DejaVuSans-32" d="M294.23,411.7h6.2v1.49h-8.33v-1.49c.67-.7,1.59-1.63,2.75-2.81,1.16-1.18,1.9-1.93,2.19-2.28.57-.64.96-1.18,1.19-1.62.23-.44.34-.88.34-1.31,0-.7-.24-1.27-.73-1.7-.49-.44-1.13-.66-1.91-.66-.56,0-1.14.1-1.76.29-.62.19-1.28.49-1.98.88v-1.79c.71-.29,1.38-.5,2-.65.62-.15,1.19-.22,1.71-.22,1.36,0,2.44.34,3.25,1.02.81.68,1.21,1.59,1.21,2.72,0,.54-.1,1.05-.3,1.54-.2.48-.57,1.05-1.1,1.71-.15.17-.61.66-1.4,1.47-.78.81-1.89,1.95-3.32,3.41Z"/>
              <path id="DejaVuSans-342" data-name="DejaVuSans-34" d="M309.03,401.62l-4.48,7.01h4.48v-7.01ZM308.57,400.07h2.23v8.55h1.87v1.48h-1.87v3.09h-1.77v-3.09h-5.92v-1.71l5.46-8.32Z"/>
              <path id="DejaVuSans-2d2" data-name="DejaVuSans-2d" d="M314.56,407.54h4.74v1.44h-4.74v-1.44Z"/>
              <path id="DejaVuSans-311" data-name="DejaVuSans-31" d="M322.41,411.7h2.9v-10.01l-3.16.63v-1.62l3.14-.63h1.77v11.63h2.9v1.49h-7.56v-1.49Z"/>
              <path id="DejaVuSans-326" data-name="DejaVuSans-32" d="M335.08,411.7h6.2v1.49h-8.33v-1.49c.67-.7,1.59-1.63,2.75-2.81,1.16-1.18,1.9-1.93,2.19-2.28.57-.64.96-1.18,1.19-1.62.23-.44.34-.88.34-1.31,0-.7-.24-1.27-.73-1.7-.49-.44-1.13-.66-1.91-.66-.56,0-1.14.1-1.76.29-.62.19-1.28.49-1.98.88v-1.79c.71-.29,1.38-.5,2-.65.62-.15,1.19-.22,1.71-.22,1.36,0,2.44.34,3.25,1.02.81.68,1.21,1.59,1.21,2.72,0,.54-.1,1.05-.3,1.54-.2.48-.57,1.05-1.1,1.71-.15.17-.61.66-1.4,1.47-.78.81-1.89,1.95-3.32,3.41Z"/>
            </g>
          </g>
        </g>
        <g id="xtick_4">
          <g id="line2d_4">
            <path id="m3c56409a2b3" data-name="m3c56409a2b" class="st27" d="M434.83,392.52v3.5"/>
          </g>
          <g id="text_4">
            <g>
              <path id="DejaVuSans-327" data-name="DejaVuSans-32" d="M400.68,411.7h6.2v1.49h-8.33v-1.49c.67-.7,1.59-1.63,2.75-2.81,1.16-1.18,1.9-1.93,2.19-2.28.57-.64.96-1.18,1.19-1.62.23-.44.34-.88.34-1.31,0-.7-.24-1.27-.73-1.7-.49-.44-1.13-.66-1.91-.66-.56,0-1.14.1-1.76.29-.62.19-1.28.49-1.98.88v-1.79c.71-.29,1.38-.5,2-.65.62-.15,1.19-.22,1.71-.22,1.36,0,2.44.34,3.25,1.02.81.68,1.21,1.59,1.21,2.72,0,.54-.1,1.05-.3,1.54-.2.48-.57,1.05-1.1,1.71-.15.17-.61.66-1.4,1.47-.78.81-1.89,1.95-3.32,3.41Z"/>
              <path id="DejaVuSans-305" data-name="DejaVuSans-30" d="M414.4,401.24c-.91,0-1.6.45-2.06,1.35-.46.9-.69,2.25-.69,4.06s.23,3.15.69,4.05c.46.9,1.15,1.35,2.06,1.35s1.61-.45,2.07-1.35c.46-.9.69-2.25.69-4.05s-.23-3.16-.69-4.06c-.46-.9-1.15-1.35-2.07-1.35ZM414.4,399.83c1.47,0,2.6.58,3.37,1.75.78,1.16,1.16,2.85,1.16,5.07s-.39,3.9-1.16,5.06c-.78,1.16-1.9,1.74-3.37,1.74s-2.59-.58-3.37-1.74c-.78-1.16-1.16-2.85-1.16-5.06s.39-3.9,1.16-5.07c.78-1.16,1.9-1.75,3.37-1.75Z"/>
              <path id="DejaVuSans-328" data-name="DejaVuSans-32" d="M423.58,411.7h6.2v1.49h-8.33v-1.49c.67-.7,1.59-1.63,2.75-2.81,1.16-1.18,1.9-1.93,2.19-2.28.57-.64.96-1.18,1.19-1.62.23-.44.34-.88.34-1.31,0-.7-.24-1.27-.73-1.7-.49-.44-1.13-.66-1.91-.66-.56,0-1.14.1-1.76.29-.62.19-1.28.49-1.98.88v-1.79c.71-.29,1.38-.5,2-.65.62-.15,1.19-.22,1.71-.22,1.36,0,2.44.34,3.25,1.02.81.68,1.21,1.59,1.21,2.72,0,.54-.1,1.05-.3,1.54-.2.48-.57,1.05-1.1,1.71-.15.17-.61.66-1.4,1.47-.78.81-1.89,1.95-3.32,3.41Z"/>
              <path id="DejaVuSans-35" d="M433.53,400.07h6.97v1.5h-5.34v3.21c.26-.09.51-.15.77-.2.26-.04.52-.06.78-.06,1.46,0,2.62.4,3.48,1.2.86.8,1.29,1.89,1.29,3.26s-.44,2.51-1.32,3.29c-.88.78-2.12,1.17-3.72,1.17-.55,0-1.11-.05-1.68-.14-.57-.09-1.16-.23-1.77-.42v-1.79c.53.29,1.07.5,1.63.64s1.16.21,1.78.21c1.01,0,1.82-.27,2.41-.8.59-.53.89-1.26.89-2.17s-.3-1.64-.89-2.17c-.59-.53-1.39-.8-2.41-.8-.47,0-.95.05-1.42.16-.47.1-.95.27-1.44.49v-6.59Z"/>
              <path id="DejaVuSans-2d3" data-name="DejaVuSans-2d" d="M443.92,407.54h4.74v1.44h-4.74v-1.44Z"/>
              <path id="DejaVuSans-306" data-name="DejaVuSans-30" d="M455.25,401.24c-.91,0-1.6.45-2.06,1.35-.46.9-.69,2.25-.69,4.06s.23,3.15.69,4.05c.46.9,1.15,1.35,2.06,1.35s1.61-.45,2.07-1.35c.46-.9.69-2.25.69-4.05s-.23-3.16-.69-4.06c-.46-.9-1.15-1.35-2.07-1.35ZM455.25,399.83c1.47,0,2.6.58,3.37,1.75.78,1.16,1.16,2.85,1.16,5.07s-.39,3.9-1.16,5.06c-.78,1.16-1.9,1.74-3.37,1.74s-2.59-.58-3.37-1.74c-.78-1.16-1.16-2.85-1.16-5.06s.39-3.9,1.16-5.07c.78-1.16,1.9-1.75,3.37-1.75Z"/>
              <path id="DejaVuSans-329" data-name="DejaVuSans-32" d="M464.44,411.7h6.2v1.49h-8.33v-1.49c.67-.7,1.59-1.63,2.75-2.81,1.16-1.18,1.9-1.93,2.19-2.28.57-.64.96-1.18,1.19-1.62.23-.44.34-.88.34-1.31,0-.7-.24-1.27-.73-1.7-.49-.44-1.13-.66-1.91-.66-.56,0-1.14.1-1.76.29-.62.19-1.28.49-1.98.88v-1.79c.71-.29,1.38-.5,2-.65.62-.15,1.19-.22,1.71-.22,1.36,0,2.44.34,3.25,1.02.81.68,1.21,1.59,1.21,2.72,0,.54-.1,1.05-.3,1.54-.2.48-.57,1.05-1.1,1.71-.15.17-.61.66-1.4,1.47-.78.81-1.89,1.95-3.32,3.41Z"/>
            </g>
          </g>
        </g>
        <g id="xtick_5">
          <g id="line2d_5">
            <path id="m3c56409a2b4" data-name="m3c56409a2b" class="st27" d="M557.93,392.52v3.5"/>
          </g>
          <g id="text_5">
            <g>
              <path id="DejaVuSans-3210" data-name="DejaVuSans-32" d="M523.77,411.7h6.2v1.49h-8.33v-1.49c.67-.7,1.59-1.63,2.75-2.81,1.16-1.18,1.9-1.93,2.19-2.28.57-.64.96-1.18,1.19-1.62.23-.44.34-.88.34-1.31,0-.7-.24-1.27-.73-1.7-.49-.44-1.13-.66-1.91-.66-.56,0-1.14.1-1.76.29-.62.19-1.28.49-1.98.88v-1.79c.71-.29,1.38-.5,2-.65.62-.15,1.19-.22,1.71-.22,1.36,0,2.44.34,3.25,1.02.81.68,1.21,1.59,1.21,2.72,0,.54-.1,1.05-.3,1.54-.2.48-.57,1.05-1.1,1.71-.15.17-.61.66-1.4,1.47-.78.81-1.89,1.95-3.32,3.41Z"/>
              <path id="DejaVuSans-307" data-name="DejaVuSans-30" d="M537.49,401.24c-.91,0-1.6.45-2.06,1.35-.46.9-.69,2.25-.69,4.06s.23,3.15.69,4.05c.46.9,1.15,1.35,2.06,1.35s1.61-.45,2.07-1.35c.46-.9.69-2.25.69-4.05s-.23-3.16-.69-4.06c-.46-.9-1.15-1.35-2.07-1.35ZM537.49,399.83c1.47,0,2.6.58,3.37,1.75.78,1.16,1.16,2.85,1.16,5.07s-.39,3.9-1.16,5.06c-.78,1.16-1.9,1.74-3.37,1.74s-2.59-.58-3.37-1.74c-.78-1.16-1.16-2.85-1.16-5.06s.39-3.9,1.16-5.07c.78-1.16,1.9-1.75,3.37-1.75Z"/>
              <path id="DejaVuSans-3211" data-name="DejaVuSans-32" d="M546.68,411.7h6.2v1.49h-8.33v-1.49c.67-.7,1.59-1.63,2.75-2.81,1.16-1.18,1.9-1.93,2.19-2.28.57-.64.96-1.18,1.19-1.62.23-.44.34-.88.34-1.31,0-.7-.24-1.27-.73-1.7-.49-.44-1.13-.66-1.91-.66-.56,0-1.14.1-1.76.29-.62.19-1.28.49-1.98.88v-1.79c.71-.29,1.38-.5,2-.65.62-.15,1.19-.22,1.71-.22,1.36,0,2.44.34,3.25,1.02.81.68,1.21,1.59,1.21,2.72,0,.54-.1,1.05-.3,1.54-.2.48-.57,1.05-1.1,1.71-.15.17-.61.66-1.4,1.47-.78.81-1.89,1.95-3.32,3.41Z"/>
              <path id="DejaVuSans-351" data-name="DejaVuSans-35" d="M556.62,400.07h6.97v1.5h-5.34v3.21c.26-.09.51-.15.77-.2.26-.04.52-.06.78-.06,1.46,0,2.62.4,3.48,1.2.86.8,1.29,1.89,1.29,3.26s-.44,2.51-1.32,3.29c-.88.78-2.12,1.17-3.72,1.17-.55,0-1.11-.05-1.68-.14-.57-.09-1.16-.23-1.77-.42v-1.79c.53.29,1.07.5,1.63.64s1.16.21,1.78.21c1.01,0,1.82-.27,2.41-.8.59-.53.89-1.26.89-2.17s-.3-1.64-.89-2.17c-.59-.53-1.39-.8-2.41-.8-.47,0-.95.05-1.42.16-.47.1-.95.27-1.44.49v-6.59Z"/>
              <path id="DejaVuSans-2d4" data-name="DejaVuSans-2d" d="M567.01,407.54h4.74v1.44h-4.74v-1.44Z"/>
              <path id="DejaVuSans-308" data-name="DejaVuSans-30" d="M578.35,401.24c-.91,0-1.6.45-2.06,1.35-.46.9-.69,2.25-.69,4.06s.23,3.15.69,4.05c.46.9,1.15,1.35,2.06,1.35s1.61-.45,2.07-1.35c.46-.9.69-2.25.69-4.05s-.23-3.16-.69-4.06c-.46-.9-1.15-1.35-2.07-1.35ZM578.35,399.83c1.47,0,2.6.58,3.37,1.75.78,1.16,1.16,2.85,1.16,5.07s-.39,3.9-1.16,5.06c-.78,1.16-1.9,1.74-3.37,1.74s-2.59-.58-3.37-1.74c-.78-1.16-1.16-2.85-1.16-5.06s.39-3.9,1.16-5.07c.78-1.16,1.9-1.75,3.37-1.75Z"/>
              <path id="DejaVuSans-343" data-name="DejaVuSans-34" d="M590.88,401.62l-4.48,7.01h4.48v-7.01ZM590.41,400.07h2.23v8.55h1.87v1.48h-1.87v3.09h-1.77v-3.09h-5.92v-1.71l5.46-8.32Z"/>
            </g>
          </g>
        </g>
        <g id="xtick_6">
          <g id="line2d_6">
            <path id="m3c56409a2b5" data-name="m3c56409a2b" class="st27" d="M685.19,392.52v3.5"/>
          </g>
          <g id="text_6">
            <g>
              <path id="DejaVuSans-3212" data-name="DejaVuSans-32" d="M651.04,411.7h6.2v1.49h-8.33v-1.49c.67-.7,1.59-1.63,2.75-2.81,1.16-1.18,1.9-1.93,2.19-2.28.57-.64.96-1.18,1.19-1.62.23-.44.34-.88.34-1.31,0-.7-.24-1.27-.73-1.7-.49-.44-1.13-.66-1.91-.66-.56,0-1.14.1-1.76.29-.62.19-1.28.49-1.98.88v-1.79c.71-.29,1.38-.5,2-.65.62-.15,1.19-.22,1.71-.22,1.36,0,2.44.34,3.25,1.02.81.68,1.21,1.59,1.21,2.72,0,.54-.1,1.05-.3,1.54-.2.48-.57,1.05-1.1,1.71-.15.17-.61.66-1.4,1.47-.78.81-1.89,1.95-3.32,3.41Z"/>
              <path id="DejaVuSans-309" data-name="DejaVuSans-30" d="M664.76,401.24c-.91,0-1.6.45-2.06,1.35-.46.9-.69,2.25-.69,4.06s.23,3.15.69,4.05c.46.9,1.15,1.35,2.06,1.35s1.61-.45,2.07-1.35c.46-.9.69-2.25.69-4.05s-.23-3.16-.69-4.06c-.46-.9-1.15-1.35-2.07-1.35ZM664.76,399.83c1.47,0,2.6.58,3.37,1.75.78,1.16,1.16,2.85,1.16,5.07s-.39,3.9-1.16,5.06c-.78,1.16-1.9,1.74-3.37,1.74s-2.59-.58-3.37-1.74c-.78-1.16-1.16-2.85-1.16-5.06s.39-3.9,1.16-5.07c.78-1.16,1.9-1.75,3.37-1.75Z"/>
              <path id="DejaVuSans-3213" data-name="DejaVuSans-32" d="M673.95,411.7h6.2v1.49h-8.33v-1.49c.67-.7,1.59-1.63,2.75-2.81,1.16-1.18,1.9-1.93,2.19-2.28.57-.64.96-1.18,1.19-1.62.23-.44.34-.88.34-1.31,0-.7-.24-1.27-.73-1.7-.49-.44-1.13-.66-1.91-.66-.56,0-1.14.1-1.76.29-.62.19-1.28.49-1.98.88v-1.79c.71-.29,1.38-.5,2-.65.62-.15,1.19-.22,1.71-.22,1.36,0,2.44.34,3.25,1.02.81.68,1.21,1.59,1.21,2.72,0,.54-.1,1.05-.3,1.54-.2.48-.57,1.05-1.1,1.71-.15.17-.61.66-1.4,1.47-.78.81-1.89,1.95-3.32,3.41Z"/>
              <path id="DejaVuSans-352" data-name="DejaVuSans-35" d="M683.89,400.07h6.97v1.5h-5.34v3.21c.26-.09.51-.15.77-.2.26-.04.52-.06.78-.06,1.46,0,2.62.4,3.48,1.2.86.8,1.29,1.89,1.29,3.26s-.44,2.51-1.32,3.29c-.88.78-2.12,1.17-3.72,1.17-.55,0-1.11-.05-1.68-.14-.57-.09-1.16-.23-1.77-.42v-1.79c.53.29,1.07.5,1.63.64s1.16.21,1.78.21c1.01,0,1.82-.27,2.41-.8.59-.53.89-1.26.89-2.17s-.3-1.64-.89-2.17c-.59-.53-1.39-.8-2.41-.8-.47,0-.95.05-1.42.16-.47.1-.95.27-1.44.49v-6.59Z"/>
              <path id="DejaVuSans-2d5" data-name="DejaVuSans-2d" d="M694.28,407.54h4.74v1.44h-4.74v-1.44Z"/>
              <path id="DejaVuSans-3010" data-name="DejaVuSans-30" d="M705.61,401.24c-.91,0-1.6.45-2.06,1.35-.46.9-.69,2.25-.69,4.06s.23,3.15.69,4.05c.46.9,1.15,1.35,2.06,1.35s1.61-.45,2.07-1.35c.46-.9.69-2.25.69-4.05s-.23-3.16-.69-4.06c-.46-.9-1.15-1.35-2.07-1.35ZM705.61,399.83c1.47,0,2.6.58,3.37,1.75.78,1.16,1.16,2.85,1.16,5.07s-.39,3.9-1.16,5.06c-.78,1.16-1.9,1.74-3.37,1.74s-2.59-.58-3.37-1.74c-.78-1.16-1.16-2.85-1.16-5.06s.39-3.9,1.16-5.07c.78-1.16,1.9-1.75,3.37-1.75Z"/>
              <path id="DejaVuSans-36" d="M717.29,405.93c-.8,0-1.43.27-1.9.82-.47.54-.7,1.29-.7,2.24s.23,1.69.7,2.24c.47.55,1.1.82,1.9.82s1.43-.27,1.89-.82c.46-.55.7-1.3.7-2.24s-.23-1.7-.7-2.24c-.46-.55-1.1-.82-1.89-.82ZM720.81,400.36v1.62c-.45-.21-.9-.37-1.35-.48-.45-.11-.9-.17-1.35-.17-1.17,0-2.07.4-2.69,1.19-.62.79-.97,1.99-1.06,3.59.34-.51.78-.9,1.3-1.17.52-.27,1.1-.41,1.72-.41,1.32,0,2.36.4,3.12,1.2.77.8,1.15,1.89,1.15,3.26s-.4,2.43-1.2,3.25c-.8.81-1.86,1.22-3.18,1.22-1.52,0-2.68-.58-3.48-1.74-.8-1.16-1.2-2.85-1.2-5.06,0-2.07.49-3.73,1.48-4.96.98-1.23,2.31-1.85,3.96-1.85.45,0,.9.04,1.35.13s.93.22,1.42.39Z"/>
            </g>
          </g>
        </g>
        <g id="xtick_7">
          <g id="line2d_7">
            <path id="m3c56409a2b6" data-name="m3c56409a2b" class="st27" d="M812.46,392.52v3.5"/>
          </g>
          <g id="text_7">
            <g>
              <path id="DejaVuSans-3214" data-name="DejaVuSans-32" d="M778.31,411.7h6.2v1.49h-8.33v-1.49c.67-.7,1.59-1.63,2.75-2.81,1.16-1.18,1.9-1.93,2.19-2.28.57-.64.96-1.18,1.19-1.62.23-.44.34-.88.34-1.31,0-.7-.24-1.27-.73-1.7-.49-.44-1.13-.66-1.91-.66-.56,0-1.14.1-1.76.29-.62.19-1.28.49-1.98.88v-1.79c.71-.29,1.38-.5,2-.65.62-.15,1.19-.22,1.71-.22,1.36,0,2.44.34,3.25,1.02.81.68,1.21,1.59,1.21,2.72,0,.54-.1,1.05-.3,1.54-.2.48-.57,1.05-1.1,1.71-.15.17-.61.66-1.4,1.47-.78.81-1.89,1.95-3.32,3.41Z"/>
              <path id="DejaVuSans-3011" data-name="DejaVuSans-30" d="M792.03,401.24c-.91,0-1.6.45-2.06,1.35-.46.9-.69,2.25-.69,4.06s.23,3.15.69,4.05c.46.9,1.15,1.35,2.06,1.35s1.61-.45,2.07-1.35c.46-.9.69-2.25.69-4.05s-.23-3.16-.69-4.06c-.46-.9-1.15-1.35-2.07-1.35ZM792.03,399.83c1.47,0,2.6.58,3.37,1.75.78,1.16,1.16,2.85,1.16,5.07s-.39,3.9-1.16,5.06c-.78,1.16-1.9,1.74-3.37,1.74s-2.59-.58-3.37-1.74c-.78-1.16-1.16-2.85-1.16-5.06s.39-3.9,1.16-5.07c.78-1.16,1.9-1.75,3.37-1.75Z"/>
              <path id="DejaVuSans-3215" data-name="DejaVuSans-32" d="M801.21,411.7h6.2v1.49h-8.33v-1.49c.67-.7,1.59-1.63,2.75-2.81,1.16-1.18,1.9-1.93,2.19-2.28.57-.64.96-1.18,1.19-1.62.23-.44.34-.88.34-1.31,0-.7-.24-1.27-.73-1.7-.49-.44-1.13-.66-1.91-.66-.56,0-1.14.1-1.76.29-.62.19-1.28.49-1.98.88v-1.79c.71-.29,1.38-.5,2-.65.62-.15,1.19-.22,1.71-.22,1.36,0,2.44.34,3.25,1.02.81.68,1.21,1.59,1.21,2.72,0,.54-.1,1.05-.3,1.54-.2.48-.57,1.05-1.1,1.71-.15.17-.61.66-1.4,1.47-.78.81-1.89,1.95-3.32,3.41Z"/>
              <path id="DejaVuSans-353" data-name="DejaVuSans-35" d="M811.15,400.07h6.97v1.5h-5.34v3.21c.26-.09.51-.15.77-.2.26-.04.52-.06.78-.06,1.46,0,2.62.4,3.48,1.2.86.8,1.29,1.89,1.29,3.26s-.44,2.51-1.32,3.29c-.88.78-2.12,1.17-3.72,1.17-.55,0-1.11-.05-1.68-.14-.57-.09-1.16-.23-1.77-.42v-1.79c.53.29,1.07.5,1.63.64s1.16.21,1.78.21c1.01,0,1.82-.27,2.41-.8.59-.53.89-1.26.89-2.17s-.3-1.64-.89-2.17c-.59-.53-1.39-.8-2.41-.8-.47,0-.95.05-1.42.16-.47.1-.95.27-1.44.49v-6.59Z"/>
              <path id="DejaVuSans-2d6" data-name="DejaVuSans-2d" d="M821.54,407.54h4.74v1.44h-4.74v-1.44Z"/>
              <path id="DejaVuSans-3012" data-name="DejaVuSans-30" d="M832.88,401.24c-.91,0-1.6.45-2.06,1.35-.46.9-.69,2.25-.69,4.06s.23,3.15.69,4.05c.46.9,1.15,1.35,2.06,1.35s1.61-.45,2.07-1.35c.46-.9.69-2.25.69-4.05s-.23-3.16-.69-4.06c-.46-.9-1.15-1.35-2.07-1.35ZM832.88,399.83c1.47,0,2.6.58,3.37,1.75.78,1.16,1.16,2.85,1.16,5.07s-.39,3.9-1.16,5.06c-.78,1.16-1.9,1.74-3.37,1.74s-2.59-.58-3.37-1.74c-.78-1.16-1.16-2.85-1.16-5.06s.39-3.9,1.16-5.07c.78-1.16,1.9-1.75,3.37-1.75Z"/>
              <path id="DejaVuSans-381" data-name="DejaVuSans-38" d="M844.33,406.96c-.84,0-1.51.23-1.99.68-.48.45-.72,1.07-.72,1.86s.24,1.41.72,1.86c.48.45,1.15.68,1.99.68s1.51-.23,1.99-.68c.49-.46.73-1.08.73-1.86s-.24-1.41-.73-1.86c-.48-.45-1.15-.68-2-.68ZM842.56,406.21c-.76-.19-1.35-.54-1.78-1.06-.42-.52-.64-1.16-.64-1.91,0-1.05.37-1.88,1.12-2.49.75-.61,1.77-.91,3.07-.91s2.33.3,3.08.91,1.12,1.44,1.12,2.49c0,.75-.21,1.39-.64,1.91-.42.52-1.01.88-1.77,1.06.86.2,1.52.59,2,1.17.48.58.72,1.29.72,2.12,0,1.27-.39,2.25-1.16,2.93-.78.68-1.89,1.02-3.34,1.02s-2.56-.34-3.34-1.02c-.78-.68-1.16-1.66-1.16-2.93,0-.84.24-1.54.72-2.12.48-.58,1.15-.97,2.01-1.17ZM841.91,403.4c0,.68.21,1.21.64,1.59.43.38,1.02.57,1.79.57s1.36-.19,1.79-.57c.43-.38.65-.91.65-1.59s-.22-1.21-.65-1.59c-.43-.38-1.03-.57-1.79-.57s-1.36.19-1.79.57c-.42.38-.64.91-.64,1.59Z"/>
            </g>
          </g>
        </g>
      </g>
      <g id="matplotlib.axis_2">
        <g id="ytick_1">
          <g id="line2d_8">
            <path id="mffa5e3fbda" class="st27" d="M50.94,392.52h-3.5"/>
          </g>
          <g id="text_8">
            <path id="DejaVuSans-3013" data-name="DejaVuSans-30" d="M38.21,387.4c-.91,0-1.6.45-2.06,1.35-.46.9-.69,2.25-.69,4.06s.23,3.15.69,4.05c.46.9,1.15,1.35,2.06,1.35s1.61-.45,2.07-1.35c.46-.9.69-2.25.69-4.05s-.23-3.16-.69-4.06c-.46-.9-1.15-1.35-2.07-1.35ZM38.21,386c1.47,0,2.6.58,3.37,1.75.78,1.16,1.16,2.85,1.16,5.07s-.39,3.9-1.16,5.06c-.78,1.16-1.9,1.74-3.37,1.74s-2.59-.58-3.37-1.74c-.78-1.16-1.16-2.85-1.16-5.06s.39-3.9,1.16-5.07c.78-1.16,1.9-1.75,3.37-1.75Z"/>
          </g>
        </g>
        <g id="ytick_2">
          <g id="line2d_9">
            <path id="mffa5e3fbda1" data-name="mffa5e3fbda" class="st27" d="M50.94,338.81h-3.5"/>
          </g>
          <g id="text_9">
            <path id="DejaVuSans-312" data-name="DejaVuSans-31" d="M34.72,344.16h2.9v-10.01l-3.16.63v-1.62l3.14-.63h1.77v11.63h2.9v1.49h-7.56v-1.49Z"/>
          </g>
        </g>
        <g id="ytick_3">
          <g id="line2d_10">
            <path id="mffa5e3fbda2" data-name="mffa5e3fbda" class="st27" d="M50.94,285.11h-3.5"/>
          </g>
          <g id="text_10">
            <path id="DejaVuSans-3216" data-name="DejaVuSans-32" d="M35.95,290.45h6.2v1.49h-8.33v-1.49c.67-.7,1.59-1.63,2.75-2.81,1.16-1.18,1.9-1.93,2.19-2.28.57-.64.96-1.18,1.19-1.62.23-.44.34-.88.34-1.31,0-.7-.24-1.27-.73-1.7-.49-.44-1.13-.66-1.91-.66-.56,0-1.14.1-1.76.29-.62.19-1.28.49-1.98.88v-1.79c.71-.29,1.38-.5,2-.65.62-.15,1.19-.22,1.71-.22,1.36,0,2.44.34,3.25,1.02.81.68,1.21,1.59,1.21,2.72,0,.54-.1,1.05-.3,1.54-.2.48-.57,1.05-1.1,1.71-.15.17-.61.66-1.4,1.47-.78.81-1.89,1.95-3.32,3.41Z"/>
          </g>
        </g>
        <g id="ytick_4">
          <g id="line2d_11">
            <path id="mffa5e3fbda3" data-name="mffa5e3fbda" class="st27" d="M50.94,231.41h-3.5"/>
          </g>
          <g id="text_11">
            <path id="DejaVuSans-33" d="M39.8,231.17c.85.18,1.51.56,1.99,1.14.48.57.72,1.28.72,2.13,0,1.29-.45,2.3-1.34,3.01-.89.71-2.16,1.06-3.8,1.06-.55,0-1.12-.05-1.7-.16-.58-.11-1.18-.27-1.81-.49v-1.71c.49.29,1.03.5,1.61.65.59.15,1.2.22,1.84.22,1.11,0,1.96-.22,2.54-.66s.87-1.08.87-1.92c0-.77-.27-1.38-.81-1.81-.54-.44-1.3-.66-2.26-.66h-1.53v-1.46h1.6c.87,0,1.54-.17,2-.52s.69-.85.69-1.51-.24-1.19-.72-1.55c-.48-.36-1.16-.54-2.05-.54-.49,0-1.01.05-1.57.16-.56.11-1.17.27-1.84.49v-1.58c.68-.19,1.31-.33,1.9-.42s1.14-.14,1.67-.14c1.35,0,2.41.31,3.2.92.79.61,1.18,1.44,1.18,2.48,0,.73-.21,1.34-.62,1.84s-1.01.85-1.77,1.04Z"/>
          </g>
        </g>
        <g id="ytick_5">
          <g id="line2d_12">
            <path id="mffa5e3fbda4" data-name="mffa5e3fbda" class="st27" d="M50.94,177.7h-3.5"/>
          </g>
          <g id="text_12">
            <path id="DejaVuSans-344" data-name="DejaVuSans-34" d="M39.3,172.97l-4.48,7.01h4.48v-7.01ZM38.83,171.42h2.23v8.55h1.87v1.48h-1.87v3.09h-1.77v-3.09h-5.92v-1.71l5.46-8.32Z"/>
          </g>
        </g>
        <g id="ytick_6">
          <g id="line2d_13">
            <path id="mffa5e3fbda5" data-name="mffa5e3fbda" class="st27" d="M50.94,124h-3.5"/>
          </g>
          <g id="text_13">
            <path id="DejaVuSans-354" data-name="DejaVuSans-35" d="M34.44,117.72h6.97v1.5h-5.34v3.21c.26-.09.51-.15.77-.2.26-.04.52-.06.78-.06,1.46,0,2.62.4,3.48,1.2.86.8,1.29,1.89,1.29,3.26s-.44,2.51-1.32,3.29c-.88.78-2.12,1.17-3.72,1.17-.55,0-1.11-.05-1.68-.14-.57-.09-1.16-.23-1.77-.42v-1.79c.53.29,1.07.5,1.63.64s1.16.21,1.78.21c1.01,0,1.82-.27,2.41-.8.59-.53.89-1.26.89-2.17s-.3-1.64-.89-2.17c-.59-.53-1.39-.8-2.41-.8-.47,0-.95.05-1.42.16-.47.1-.95.27-1.44.49v-6.59Z"/>
          </g>
        </g>
        <g id="ytick_7">
          <g id="line2d_14">
            <path id="mffa5e3fbda6" data-name="mffa5e3fbda" class="st27" d="M50.94,70.3h-3.5"/>
          </g>
          <g id="text_14">
            <path id="DejaVuSans-361" data-name="DejaVuSans-36" d="M38.43,69.87c-.8,0-1.43.27-1.9.82-.47.54-.7,1.29-.7,2.24s.23,1.69.7,2.24c.47.55,1.1.82,1.9.82s1.43-.27,1.89-.82c.46-.55.7-1.3.7-2.24s-.23-1.7-.7-2.24c-.46-.55-1.1-.82-1.89-.82ZM41.96,64.3v1.62c-.45-.21-.9-.37-1.35-.48-.45-.11-.9-.17-1.35-.17-1.17,0-2.07.4-2.69,1.19-.62.79-.97,1.99-1.06,3.59.34-.51.78-.9,1.3-1.17.52-.27,1.1-.41,1.72-.41,1.32,0,2.36.4,3.12,1.2.77.8,1.15,1.89,1.15,3.26s-.4,2.43-1.2,3.25c-.8.81-1.86,1.22-3.18,1.22-1.52,0-2.68-.58-3.48-1.74-.8-1.16-1.2-2.85-1.2-5.06,0-2.07.49-3.73,1.48-4.96.98-1.23,2.31-1.85,3.96-1.85.45,0,.9.04,1.35.13s.93.22,1.42.39Z"/>
          </g>
        </g>
        <g id="text_15">
          <g>
            <path id="DejaVuSans-4d" d="M7.88,376.46v-3.23l10.91-4.09-10.91-4.11v-3.23h16.04v2.12h-14.08l11,4.14v2.18l-11,4.14h14.08v2.11H7.88Z"/>
            <path id="DejaVuSans-65" d="M17.41,347.27h.97v9.09c1.36-.09,2.4-.5,3.11-1.23.71-.73,1.07-1.76,1.07-3.07,0-.76-.09-1.49-.28-2.21s-.47-1.42-.84-2.12h1.87c.3.71.53,1.44.69,2.18s.24,1.5.24,2.27c0,1.92-.56,3.44-1.67,4.56-1.12,1.12-2.63,1.68-4.54,1.68s-3.53-.53-4.69-1.59c-1.16-1.06-1.74-2.5-1.74-4.3,0-1.62.52-2.9,1.56-3.84,1.04-.94,2.46-1.41,4.25-1.41ZM16.83,349.25c-1.08.01-1.94.32-2.58.91-.65.59-.97,1.37-.97,2.35,0,1.1.31,1.98.93,2.65s1.5,1.04,2.63,1.14v-7.05Z"/>
            <path id="DejaVuSans-61" d="M17.87,338.56c0,1.6.18,2.7.55,3.32s.99.92,1.87.92c.7,0,1.26-.23,1.67-.69.41-.46.62-1.09.62-1.88,0-1.1-.39-1.98-1.17-2.64s-1.81-.99-3.1-.99h-.44v1.97ZM17.05,334.62h6.86v1.98h-1.83c.73.45,1.27,1.01,1.62,1.69.35.67.52,1.5.52,2.47,0,1.23-.35,2.21-1.04,2.94-.69.73-1.62,1.09-2.78,1.09-1.35,0-2.37-.45-3.06-1.36-.69-.91-1.03-2.26-1.03-4.06v-2.77h-.2c-.91,0-1.61.3-2.11.9s-.75,1.44-.75,2.52c0,.69.08,1.36.25,2.01.16.65.41,1.28.74,1.88h-1.83c-.28-.72-.49-1.42-.63-2.1-.14-.68-.21-1.34-.21-1.99,0-1.74.45-3.04,1.35-3.9.9-.86,2.27-1.29,4.1-1.29Z"/>
            <path id="DejaVuSans-6e" d="M16.65,320.54h7.26v1.98h-7.2c-1.14,0-1.99.22-2.55.67-.57.44-.85,1.11-.85,2,0,1.07.34,1.91,1.02,2.53.68.62,1.61.92,2.78.92h6.8v1.99h-12.03v-1.99h1.87c-.72-.47-1.26-1.03-1.62-1.67-.36-.64-.54-1.38-.54-2.22,0-1.38.43-2.43,1.28-3.13.85-.71,2.11-1.07,3.77-1.07Z"/>
            <path id="DejaVuSans-20" d="M23.92,318.68"/>
            <path id="DejaVuSans-69" d="M11.89,309.61v-1.98h12.03v1.98h-12.03ZM7.2,309.61v-1.98h2.51v1.98h-2.51Z"/>
            <path id="DejaVuSans-6e1" data-name="DejaVuSans-6e" d="M16.65,293.49h7.26v1.98h-7.2c-1.14,0-1.99.22-2.55.67-.57.44-.85,1.11-.85,2,0,1.07.34,1.91,1.02,2.53.68.62,1.61.92,2.78.92h6.8v1.99h-12.03v-1.99h1.87c-.72-.47-1.26-1.03-1.62-1.67-.36-.64-.54-1.38-.54-2.22,0-1.38.43-2.43,1.28-3.13.85-.71,2.11-1.07,3.77-1.07Z"/>
            <path id="DejaVuSans-74" d="M8.47,287.6h3.42v-4.07h1.54v4.07h6.53c.98,0,1.61-.13,1.89-.4s.42-.81.42-1.64v-2.03h1.65v2.03c0,1.53-.28,2.58-.85,3.16-.57.58-1.61.87-3.11.87h-6.53v1.45h-1.54v-1.45h-3.42v-1.99Z"/>
            <path id="DejaVuSans-72" d="M13.73,273.96c-.13.22-.22.46-.28.73-.06.26-.09.55-.09.86,0,1.12.36,1.98,1.09,2.57s1.77.9,3.13.9h6.34v1.99h-12.03v-1.99h1.87c-.73-.42-1.27-.96-1.63-1.62-.36-.67-.53-1.48-.53-2.43,0-.14,0-.29.03-.45.02-.16.04-.35.08-.55h2.03Z"/>
            <path id="DejaVuSans-6f" d="M13.27,267.72c0,1.06.41,1.9,1.24,2.51s1.96.92,3.4.92,2.57-.31,3.4-.92c.83-.61,1.24-1.45,1.24-2.52s-.41-1.89-1.24-2.5c-.83-.62-1.96-.92-3.4-.92s-2.56.31-3.39.92c-.83.61-1.25,1.45-1.25,2.5ZM11.6,267.72c0-1.72.56-3.07,1.68-4.05,1.12-.98,2.66-1.47,4.64-1.47s3.51.49,4.64,1.47c1.12.98,1.68,2.33,1.68,4.05s-.56,3.08-1.68,4.06c-1.12.98-2.67,1.46-4.64,1.46s-3.52-.49-4.64-1.46c-1.12-.98-1.68-2.33-1.68-4.06Z"/>
            <path id="DejaVuSans-64" d="M13.71,251h-6.51v-1.98h16.72v1.98h-1.8c.71.41,1.25.94,1.59,1.57.35.63.52,1.39.52,2.28,0,1.45-.58,2.64-1.74,3.55-1.16.91-2.69,1.37-4.58,1.37s-3.42-.46-4.58-1.37c-1.16-.91-1.74-2.1-1.74-3.55,0-.89.17-1.65.52-2.28.35-.63.88-1.16,1.59-1.57ZM17.91,257.74c1.45,0,2.59-.3,3.42-.9.83-.6,1.24-1.42,1.24-2.46s-.41-1.87-1.24-2.47c-.83-.6-1.97-.9-3.42-.9s-2.59.3-3.42.9c-.83.6-1.24,1.42-1.24,2.47s.41,1.87,1.24,2.46,1.97.9,3.42.9Z"/>
            <path id="DejaVuSans-75" d="M19.17,245.16h-7.28v-1.98h7.21c1.14,0,1.99-.22,2.56-.66.57-.44.85-1.11.85-2,0-1.07-.34-1.91-1.02-2.53-.68-.62-1.61-.93-2.78-.93h-6.82v-1.98h12.03v1.98h-1.85c.73.48,1.27,1.04,1.63,1.67.36.63.53,1.37.53,2.21,0,1.38-.43,2.43-1.29,3.15-.86.71-2.12,1.07-3.77,1.07ZM11.6,240.18h0Z"/>
            <path id="DejaVuSans-63" d="M12.35,222.35h1.85c-.31.56-.54,1.12-.69,1.68s-.23,1.13-.23,1.7c0,1.28.41,2.28,1.22,2.99.81.71,1.95,1.06,3.42,1.06s2.61-.35,3.42-1.06c.81-.71,1.22-1.71,1.22-2.99,0-.57-.08-1.14-.23-1.7s-.38-1.12-.69-1.68h1.83c.26.55.45,1.12.58,1.72.13.59.2,1.22.2,1.88,0,1.81-.57,3.25-1.71,4.32-1.14,1.07-2.68,1.6-4.61,1.6s-3.5-.54-4.63-1.62c-1.13-1.08-1.69-2.56-1.69-4.43,0-.61.06-1.2.19-1.78.12-.58.31-1.14.56-1.69Z"/>
            <path id="DejaVuSans-741" data-name="DejaVuSans-74" d="M8.47,216.96h3.42v-4.07h1.54v4.07h6.53c.98,0,1.61-.13,1.89-.4s.42-.81.42-1.64v-2.03h1.65v2.03c0,1.53-.28,2.58-.85,3.16-.57.58-1.61.87-3.11.87h-6.53v1.45h-1.54v-1.45h-3.42v-1.99Z"/>
            <path id="DejaVuSans-691" data-name="DejaVuSans-69" d="M11.89,210.29v-1.98h12.03v1.98h-12.03ZM7.2,210.29v-1.98h2.51v1.98h-2.51Z"/>
            <path id="DejaVuSans-6f1" data-name="DejaVuSans-6f" d="M13.27,199.52c0,1.06.41,1.9,1.24,2.51s1.96.92,3.4.92,2.57-.31,3.4-.92c.83-.61,1.24-1.45,1.24-2.52s-.41-1.89-1.24-2.5c-.83-.62-1.96-.92-3.4-.92s-2.56.31-3.39.92c-.83.61-1.25,1.45-1.25,2.5ZM11.6,199.52c0-1.72.56-3.07,1.68-4.05,1.12-.98,2.66-1.47,4.64-1.47s3.51.49,4.64,1.47c1.12.98,1.68,2.33,1.68,4.05s-.56,3.08-1.68,4.06c-1.12.98-2.67,1.46-4.64,1.46s-3.52-.49-4.64-1.46c-1.12-.98-1.68-2.33-1.68-4.06Z"/>
            <path id="DejaVuSans-6e2" data-name="DejaVuSans-6e" d="M16.65,180.71h7.26v1.98h-7.2c-1.14,0-1.99.22-2.55.67-.57.44-.85,1.11-.85,2,0,1.07.34,1.91,1.02,2.53.68.62,1.61.92,2.78.92h6.8v1.99h-12.03v-1.99h1.87c-.72-.47-1.26-1.03-1.62-1.67-.36-.64-.54-1.38-.54-2.22,0-1.38.43-2.43,1.28-3.13.85-.71,2.11-1.07,3.77-1.07Z"/>
            <path id="DejaVuSans-73" d="M12.24,169.1h1.87c-.29.56-.5,1.14-.64,1.74-.14.6-.22,1.22-.22,1.87,0,.98.15,1.72.45,2.21.3.49.75.74,1.35.74.46,0,.82-.18,1.08-.53s.51-1.06.75-2.12l.15-.68c.3-1.4.72-2.4,1.27-2.99s1.31-.89,2.29-.89c1.12,0,2,.44,2.66,1.33.65.88.98,2.1.98,3.65,0,.64-.06,1.32-.19,2.01-.13.7-.31,1.43-.56,2.21h-2.04c.38-.73.67-1.45.86-2.16.19-.71.28-1.41.28-2.11,0-.93-.16-1.65-.48-2.14-.32-.5-.77-.75-1.35-.75-.54,0-.95.18-1.23.54-.29.36-.56,1.15-.83,2.38l-.16.69c-.26,1.22-.65,2.11-1.19,2.65-.53.54-1.27.81-2.2.81-1.13,0-2.01-.4-2.62-1.2-.62-.8-.92-1.94-.92-3.42,0-.73.05-1.42.16-2.06.11-.65.27-1.24.48-1.78Z"/>
            <path id="DejaVuSans-201" data-name="DejaVuSans-20" d="M23.92,167.38"/>
            <path id="DejaVuSans-70" d="M22.11,156.41h6.38v1.99H11.89v-1.99h1.83c-.71-.42-1.25-.94-1.59-1.57-.35-.63-.52-1.39-.52-2.27,0-1.46.58-2.65,1.74-3.56,1.16-.91,2.68-1.37,4.58-1.37s3.42.46,4.58,1.37c1.16.91,1.74,2.1,1.74,3.56,0,.88-.17,1.64-.52,2.27-.35.63-.88,1.16-1.59,1.57ZM17.91,149.68c-1.45,0-2.59.3-3.42.9s-1.24,1.42-1.24,2.46.41,1.87,1.24,2.47,1.97.9,3.42.9,2.59-.3,3.42-.9c.83-.6,1.24-1.42,1.24-2.47s-.41-1.87-1.24-2.46c-.83-.6-1.97-.9-3.42-.9Z"/>
            <path id="DejaVuSans-651" data-name="DejaVuSans-65" d="M17.41,134.06h.97v9.09c1.36-.09,2.4-.5,3.11-1.23.71-.73,1.07-1.76,1.07-3.07,0-.76-.09-1.49-.28-2.21s-.47-1.42-.84-2.12h1.87c.3.71.53,1.44.69,2.18s.24,1.5.24,2.27c0,1.92-.56,3.44-1.67,4.56-1.12,1.12-2.63,1.68-4.54,1.68s-3.53-.53-4.69-1.59c-1.16-1.06-1.74-2.5-1.74-4.3,0-1.62.52-2.9,1.56-3.84,1.04-.94,2.46-1.41,4.25-1.41ZM16.83,136.04c-1.08.01-1.94.32-2.58.91-.65.59-.97,1.37-.97,2.35,0,1.1.31,1.98.93,2.65s1.5,1.04,2.63,1.14v-7.05Z"/>
            <path id="DejaVuSans-721" data-name="DejaVuSans-72" d="M13.73,123.85c-.13.22-.22.46-.28.73-.06.26-.09.55-.09.86,0,1.12.36,1.98,1.09,2.57s1.77.9,3.13.9h6.34v1.99h-12.03v-1.99h1.87c-.73-.42-1.27-.96-1.63-1.62-.36-.67-.53-1.48-.53-2.43,0-.14,0-.29.03-.45.02-.16.04-.35.08-.55h2.03Z"/>
            <path id="DejaVuSans-202" data-name="DejaVuSans-20" d="M23.92,123.85"/>
            <path id="DejaVuSans-6d" d="M14.2,105.41c-.89-.49-1.54-1.09-1.97-1.77s-.63-1.5-.63-2.43c0-1.25.44-2.22,1.32-2.9.88-.68,2.12-1.02,3.74-1.02h7.26v1.99h-7.2c-1.15,0-2.01.21-2.56.62-.56.41-.84,1.03-.84,1.87,0,1.02.34,1.83,1.02,2.43.68.59,1.61.89,2.78.89h6.8v1.99h-7.2c-1.16,0-2.02.2-2.57.61s-.83,1.04-.83,1.89c0,1.01.34,1.81,1.02,2.41.68.59,1.61.89,2.78.89h6.8v1.99h-12.03v-1.99h1.87c-.74-.45-1.28-.99-1.63-1.62s-.53-1.38-.53-2.24.22-1.62.67-2.23c.44-.61,1.09-1.06,1.93-1.36Z"/>
            <path id="DejaVuSans-6f2" data-name="DejaVuSans-6f" d="M13.27,88.69c0,1.06.41,1.9,1.24,2.51s1.96.92,3.4.92,2.57-.31,3.4-.92c.83-.61,1.24-1.45,1.24-2.52s-.41-1.89-1.24-2.5c-.83-.62-1.96-.92-3.4-.92s-2.56.31-3.39.92c-.83.61-1.25,1.45-1.25,2.5ZM11.6,88.69c0-1.72.56-3.07,1.68-4.05,1.12-.98,2.66-1.47,4.64-1.47s3.51.49,4.64,1.47c1.12.98,1.68,2.33,1.68,4.05s-.56,3.08-1.68,4.06c-1.12.98-2.67,1.46-4.64,1.46s-3.52-.49-4.64-1.46c-1.12-.98-1.68-2.33-1.68-4.06Z"/>
            <path id="DejaVuSans-6e3" data-name="DejaVuSans-6e" d="M16.65,69.89h7.26v1.98h-7.2c-1.14,0-1.99.22-2.55.67-.57.44-.85,1.11-.85,2,0,1.07.34,1.91,1.02,2.53.68.62,1.61.92,2.78.92h6.8v1.99h-12.03v-1.99h1.87c-.72-.47-1.26-1.03-1.62-1.67-.36-.64-.54-1.38-.54-2.22,0-1.38.43-2.43,1.28-3.13.85-.71,2.11-1.07,3.77-1.07Z"/>
            <path id="DejaVuSans-742" data-name="DejaVuSans-74" d="M8.47,63.99h3.42v-4.07h1.54v4.07h6.53c.98,0,1.61-.13,1.89-.4s.42-.81.42-1.64v-2.03h1.65v2.03c0,1.53-.28,2.58-.85,3.16-.57.58-1.61.87-3.11.87h-6.53v1.45h-1.54v-1.45h-3.42v-1.99Z"/>
            <path id="DejaVuSans-68" d="M16.65,47.32h7.26v1.98h-7.2c-1.14,0-1.99.22-2.55.67-.57.44-.85,1.11-.85,2,0,1.07.34,1.91,1.02,2.53.68.62,1.61.92,2.78.92h6.8v1.99H7.2v-1.99h6.56c-.72-.47-1.26-1.03-1.62-1.67-.36-.64-.54-1.38-.54-2.22,0-1.38.43-2.43,1.28-3.13.85-.71,2.11-1.07,3.77-1.07Z"/>
          </g>
        </g>
      </g>
      <g id="PolyCollection_1">
        <g class="st53">
          <path id="mcbd4967e38" class="st2" d="M50.94,392.5v.02h761.51s-64.68-2-64.68-2l-62.59-43.86-64.68-7.84h-62.59s-64.68,1.46-64.68,1.46l-58.42,16.69-64.68,17.88-64.68,12.47-62.59,3.88-64.68,1.01-62.59.28-64.68.02Z"/>
        </g>
      </g>
      <g id="PolyCollection_2">
        <g class="st43">
          <path id="m59ca639438" class="st12" d="M50.94,392.48v.02l64.68-.02,62.59-.28,64.68-1.01,62.59-3.88,64.68-12.47,64.68-17.88,58.42-16.69,64.68-1.45h62.59s64.68,7.84,64.68,7.84l62.59,43.86,64.68,1.99h0l-64.68-2.45-62.59-85.42-64.68-19.52-62.59,3.1-64.68,9.67-58.42,34.82-64.68,29.94-64.68,21.36-62.59,6.29-64.68,1.7-62.59.41-64.68.06Z"/>
        </g>
      </g>
      <g id="PolyCollection_3">
        <g class="st46">
          <path id="mbaa05fb010" class="st8" d="M50.94,392.47v.02l64.68-.06,62.59-.41,64.68-1.7,62.59-6.29,64.68-21.36,64.68-29.94,58.42-34.82,64.68-9.67,62.59-3.1,64.68,19.52,62.59,85.42,64.68,2.45v-.73h0l-64.68-30.06-62.59-102.59-64.68-26.97-62.59,7.18-64.68,29-58.42,56.08-64.68,34.53-64.68,23.53-62.59,7.23-64.68,2.14-62.59.55-64.68.08Z"/>
        </g>
      </g>
      <g id="PolyCollection_4">
        <g class="st44">
          <path id="mcda0f738fd" class="st17" d="M50.94,392.47h0l64.68-.08,62.59-.55,64.68-2.14,62.59-7.23,64.68-23.53,64.68-34.53,58.42-56.08,64.68-29,62.59-7.18,64.68,26.97,62.59,102.59,64.68,30.06h0l-64.68-30.83-62.59-137.12-64.68-37.28-62.59,19.54-64.68,50.17-58.42,65.4-64.68,36.46-64.68,24.18-62.59,7.36-64.68,2.16-62.59.55-64.68.08Z"/>
        </g>
      </g>
      <g id="PolyCollection_5">
        <g class="st45">
          <path id="mff36ec67cc" class="st7" d="M50.94,392.47h0l64.68-.08,62.59-.55,64.68-2.16,62.59-7.36,64.68-24.18,64.68-36.46,58.42-65.4,64.68-50.17,62.59-19.54,64.68,37.28,62.59,137.12,64.68,30.83v-.13h0l-64.68-59.13-62.59-143.73-64.68-25.41-62.59,36.41-64.68,55.71-58.42,66.01-64.68,36.59-64.68,24.2-62.59,7.36-64.68,2.17-62.59.55-64.68.08Z"/>
        </g>
      </g>
      <g id="PolyCollection_6">
        <g class="st51">
          <path id="ma883f0a774" class="st20" d="M50.94,392.47h0l64.68-.08,62.59-.55,64.68-2.17,62.59-7.36,64.68-24.2,64.68-36.59,58.42-66.01,64.68-55.71,62.59-36.41,64.68,25.41,62.59,143.73,64.68,59.13h0l-64.68-59.3-62.59-165.96-64.68-35.51-62.59,52.88-64.68,66.38-58.42,70.22-64.68,37.44-64.68,24.45-62.59,7.4-64.68,2.18-62.59.55-64.68.08Z"/>
        </g>
      </g>
      <g id="PolyCollection_7">
        <g class="st48">
          <path id="m09ff556f0d" class="st14" d="M50.94,392.47h0l64.68-.08,62.59-.55,64.68-2.18,62.59-7.4,64.68-24.45,64.68-37.44,58.42-70.22,64.68-66.38,62.59-52.88,64.68,35.51,62.59,165.96,64.68,59.3v-.06h0l-64.68-74.03-62.59-176.59-64.68-32.85-62.59,65.8-64.68,74.03-58.42,71.9-64.68,37.76-64.68,24.57-62.59,7.46-64.68,2.18-62.59.56-64.68.08Z"/>
        </g>
      </g>
      <g id="PolyCollection_8">
        <g class="st47">
          <path id="md4c8b5b341" class="st3" d="M50.94,392.47h0l64.68-.08,62.59-.56,64.68-2.18,62.59-7.46,64.68-24.57,64.68-37.76,58.42-71.9,64.68-74.03,62.59-65.8,64.68,32.85,62.59,176.59,64.68,74.03v-.29h0l-64.68-94.23-62.59-174.85-64.68-20.77-62.59,71.67-64.68,74.75-58.42,71.98-64.68,37.76-64.68,24.58-62.59,7.46-64.68,2.18-62.59.56-64.68.08Z"/>
        </g>
      </g>
      <g id="PolyCollection_9">
        <g class="st50">
          <path id="m84c614da5d" class="st15" d="M50.94,392.47h0l64.68-.08,62.59-.56,64.68-2.18,62.59-7.46,64.68-24.58,64.68-37.76,58.42-71.98,64.68-74.75,62.59-71.67,64.68,20.77,62.59,174.85,64.68,94.23v-.07h0l-64.68-99.13-62.59-180.45-64.68-19.77-62.59,75.55-64.68,78.18-58.42,73.88-64.68,38.04-64.68,24.63-62.59,7.49-64.68,2.18-62.59.56-64.68.08Z"/>
        </g>
      </g>
      <g id="PolyCollection_10">
        <g class="st49">
          <path id="m70292e7ea5" class="st6" d="M50.94,392.47h0l64.68-.08,62.59-.56,64.68-2.18,62.59-7.49,64.68-24.63,64.68-38.04,58.42-73.88,64.68-78.18,62.59-75.55,64.68,19.77,62.59,180.45,64.68,99.13v-.03h0l-64.68-104.41-62.59-182.31-64.68-20.76-62.59,82.51-64.68,79.25-58.42,73.98-64.68,38.06-64.68,24.63-62.59,7.48-64.68,2.19-62.59.56-64.68.08Z"/>
        </g>
      </g>
      <g id="PolyCollection_11">
        <g class="st37">
          <path id="md819adb70f" class="st5" d="M50.94,392.47h0l64.68-.08,62.59-.56,64.68-2.19,62.59-7.48,64.68-24.63,64.68-38.06,58.42-73.98,64.68-79.25,62.59-82.51,64.68,20.76,62.59,182.31,64.68,104.41v-.09h0l-64.68-107.13-62.59-185.1-64.68-20.4-62.59,86.11-64.68,80.37-58.42,74.38-64.68,38.14-64.68,24.67-62.59,7.49-64.68,2.19-62.59.56-64.68.08Z"/>
        </g>
      </g>
      <g id="PolyCollection_12">
        <g class="st34">
          <path id="m71c34a3d6e" class="st10" d="M50.94,392.47h0l64.68-.08,62.59-.56,64.68-2.19,62.59-7.49,64.68-24.67,64.68-38.14,58.42-74.38,64.68-80.37,62.59-86.11,64.68,20.4,62.59,185.1,64.68,107.13v-.21h0l-64.68-110.95-62.59-190.12-64.68-12.77-62.59,87.32-64.68,80.49-58.42,74.43-64.68,38.14-64.68,24.68-62.59,7.49-64.68,2.19-62.59.56-64.68.08Z"/>
        </g>
      </g>
      <g id="PolyCollection_13">
        <g class="st41">
          <path id="me9e2a0591e" class="st0" d="M50.94,392.47h0l64.68-.08,62.59-.56,64.68-2.19,62.59-7.49,64.68-24.68,64.68-38.14,58.42-74.43,64.68-80.49,62.59-87.32,64.68,12.77,62.59,190.12,64.68,110.95h0l-64.68-111.39-62.59-190.34-64.68-17.11-62.59,91.05-64.68,81.26-58.42,74.82-64.68,38.21-64.68,24.7-62.59,7.51-64.68,2.2-62.59.56-64.68.08Z"/>
        </g>
      </g>
      <g id="PolyCollection_14">
        <g class="st39">
          <path id="m816ec1244d" class="st18" d="M50.94,392.47h0l64.68-.08,62.59-.56,64.68-2.2,62.59-7.51,64.68-24.7,64.68-38.21,58.42-74.82,64.68-81.26,62.59-91.05,64.68,17.11,62.59,190.34,64.68,111.39h0l-64.68-111.72-62.59-190.73-64.68-20.01-62.59,92.91-64.68,82.28-58.42,75.32-64.68,38.36-64.68,24.74-62.59,7.53-64.68,2.21-62.59.57-64.68.08Z"/>
        </g>
      </g>
      <g id="PolyCollection_15">
        <g class="st40">
          <path id="m2581f01234" class="st16" d="M50.94,392.47h0l64.68-.08,62.59-.57,64.68-2.21,62.59-7.53,64.68-24.74,64.68-38.36,58.42-75.32,64.68-82.28,62.59-92.91,64.68,20.01,62.59,190.73,64.68,111.72h0l-64.68-111.82-62.59-191.17-64.68-20.8-62.59,92.95-64.68,83.21-58.42,75.63-64.68,38.41-64.68,24.74-62.59,7.53-64.68,2.21-62.59.57-64.68.08Z"/>
        </g>
      </g>
      <g id="PolyCollection_16">
        <g class="st38">
          <path id="mc3e68816e0" class="st11" d="M50.94,392.47h0l64.68-.08,62.59-.57,64.68-2.21,62.59-7.53,64.68-24.74,64.68-38.41,58.42-75.63,64.68-83.21,62.59-92.95,64.68,20.8,62.59,191.17,64.68,111.82h0l-64.68-113.76-62.59-189.84-64.68-20.61-62.59,93.28-64.68,83.27-58.42,75.65-64.68,38.42-64.68,24.74-62.59,7.53-64.68,2.21-62.59.57-64.68.08Z"/>
        </g>
      </g>
      <g id="PolyCollection_17">
        <g class="st35">
          <path id="m63e2b47171" class="st9" d="M50.94,392.47h0l64.68-.08,62.59-.57,64.68-2.21,62.59-7.53,64.68-24.74,64.68-38.42,58.42-75.65,64.68-83.27,62.59-93.28,64.68,20.61,62.59,189.84,64.68,113.76h0s-64.68-114.78-64.68-114.78l-62.59-189.33-64.68-20.83-62.59,93.67-64.68,83.48-58.42,75.73-64.68,38.46-64.68,24.75-62.59,7.54-64.68,2.21-62.59.57-64.68.09Z"/>
        </g>
      </g>
      <g id="PolyCollection_18">
        <g class="st32">
          <path id="mc7129a32c7" class="st4" d="M50.94,392.47h0l64.68-.09,62.59-.57,64.68-2.21,62.59-7.54,64.68-24.75,64.68-38.46,58.42-75.73,64.68-83.48,62.59-93.67,64.68,20.83,62.59,189.33,64.68,114.78h0l-64.68-114.83-62.59-189.74-64.68-21.31-62.59,94.23-64.68,83.74-58.42,75.81-64.68,38.48-64.68,24.75-62.59,7.55-64.68,2.21-62.59.57-64.68.09Z"/>
        </g>
      </g>
      <g id="PolyCollection_19">
        <g class="st36">
          <path id="mc315a44ef3" class="st13" d="M50.94,392.47h0l64.68-.09,62.59-.57,64.68-2.21,62.59-7.55,64.68-24.75,64.68-38.48,58.42-75.81,64.68-83.74,62.59-94.23,64.68,21.31,62.59,189.74,64.68,114.83h0l-64.68-114.84-62.59-190.18-64.68-21.2-62.59,94.49-64.68,83.8-58.42,75.83-64.68,38.49-64.68,24.75-62.59,7.55-64.68,2.21-62.59.57-64.68.09Z"/>
        </g>
      </g>
      <g id="PolyCollection_20">
        <g class="st33">
          <path id="me34a56bbdb" class="st19" d="M50.94,392.47h0l64.68-.09,62.59-.57,64.68-2.21,62.59-7.55,64.68-24.75,64.68-38.49,58.42-75.83,64.68-83.8,62.59-94.49,64.68,21.2,62.59,190.18,64.68,114.84h0l-64.68-114.86-62.59-190.39-64.68-21.28-62.59,94.68-64.68,83.88-58.42,75.86-64.68,38.51-64.68,24.75-62.59,7.55-64.68,2.21-62.59.57-64.68.09Z"/>
        </g>
      </g>
      <g id="patch_3">
        <path class="st26" d="M50.94,392.52V31.56"/>
      </g>
      <g id="patch_4">
        <path class="st26" d="M50.94,392.52h761.51"/>
      </g>
      <g id="text_16">
        <g>
          <path id="DejaVuSans-46" d="M402.59,31.9h8.38v1.66h-6.41v4.3h5.78v1.66h-5.78v6.96h-1.97v-14.58Z"/>
          <path id="DejaVuSans-692" data-name="DejaVuSans-69" d="M412.56,35.55h1.8v10.94h-1.8v-10.94ZM412.56,31.29h1.8v2.28h-1.8v-2.28Z"/>
          <path id="DejaVuSans-722" data-name="DejaVuSans-72" d="M424.46,37.23c-.2-.12-.42-.2-.66-.26-.24-.06-.5-.08-.78-.08-1.02,0-1.8.33-2.34.99s-.82,1.61-.82,2.85v5.76h-1.81v-10.94h1.81v1.7c.38-.66.87-1.16,1.48-1.48.61-.32,1.34-.48,2.21-.48.12,0,.26,0,.41.03.15.01.32.04.5.07v1.84Z"/>
          <path id="DejaVuSans-731" data-name="DejaVuSans-73" d="M433.31,35.87v1.7c-.51-.26-1.03-.46-1.58-.58-.55-.13-1.11-.2-1.7-.2-.89,0-1.56.14-2.01.41-.45.27-.67.68-.67,1.23,0,.42.16.74.48.98s.96.46,1.93.68l.62.14c1.28.27,2.18.66,2.72,1.16s.81,1.19.81,2.08c0,1.02-.4,1.82-1.21,2.42-.8.59-1.91.89-3.32.89-.59,0-1.2-.06-1.83-.17-.64-.11-1.3-.29-2.01-.51v-1.86c.66.35,1.32.61,1.96.78.64.17,1.28.26,1.92.26.85,0,1.5-.14,1.95-.43.46-.29.68-.7.68-1.23,0-.49-.16-.86-.49-1.12-.33-.26-1.05-.51-2.16-.75l-.63-.15c-1.11-.23-1.92-.59-2.41-1.08-.49-.49-.74-1.15-.74-2,0-1.03.36-1.82,1.09-2.38.73-.56,1.76-.84,3.11-.84.66,0,1.29.05,1.87.15.59.1,1.13.24,1.62.44Z"/>
          <path id="DejaVuSans-743" data-name="DejaVuSans-74" d="M438.54,32.44v3.11h3.7v1.4h-3.7v5.94c0,.89.12,1.46.37,1.72s.74.38,1.49.38h1.84v1.5h-1.84c-1.39,0-2.34-.26-2.87-.78-.53-.52-.79-1.46-.79-2.83v-5.94h-1.32v-1.4h1.32v-3.11h1.81Z"/>
          <path id="DejaVuSans-203" data-name="DejaVuSans-20" d="M442.72,46.48"/>
          <path id="DejaVuSans-631" data-name="DejaVuSans-63" d="M458.83,35.97v1.68c-.51-.28-1.02-.49-1.53-.63s-1.03-.21-1.55-.21c-1.17,0-2.07.37-2.72,1.11-.64.74-.97,1.77-.97,3.11s.32,2.37.97,3.11c.65.74,1.55,1.11,2.72,1.11.52,0,1.04-.07,1.55-.21s1.02-.35,1.53-.63v1.66c-.5.23-1.02.41-1.56.53-.54.12-1.11.18-1.71.18-1.65,0-2.96-.52-3.93-1.55-.97-1.04-1.45-2.43-1.45-4.19s.49-3.19,1.47-4.21c.98-1.02,2.33-1.53,4.03-1.53.55,0,1.09.06,1.62.17.53.11,1.04.28,1.53.51Z"/>
          <path id="DejaVuSans-611" data-name="DejaVuSans-61" d="M466.93,40.99c-1.45,0-2.46.17-3.02.5s-.84.9-.84,1.7c0,.64.21,1.14.63,1.52.42.37.99.56,1.71.56,1,0,1.8-.35,2.4-1.06s.9-1.64.9-2.82v-.4h-1.79ZM470.51,40.24v6.24h-1.8v-1.66c-.41.66-.92,1.15-1.53,1.47-.61.32-1.36.48-2.25.48-1.12,0-2.01-.31-2.67-.94-.66-.63-.99-1.47-.99-2.53,0-1.23.41-2.16,1.23-2.78.83-.63,2.05-.94,3.69-.94h2.52v-.18c0-.83-.27-1.47-.82-1.92s-1.31-.68-2.29-.68c-.63,0-1.23.08-1.83.23-.59.15-1.16.38-1.71.68v-1.66c.66-.25,1.29-.44,1.91-.57.62-.13,1.22-.19,1.81-.19,1.58,0,2.77.41,3.55,1.23.78.82,1.17,2.06,1.17,3.73Z"/>
          <path id="DejaVuSans-732" data-name="DejaVuSans-73" d="M481.19,35.87v1.7c-.51-.26-1.03-.46-1.58-.58-.55-.13-1.11-.2-1.7-.2-.89,0-1.56.14-2.01.41-.45.27-.67.68-.67,1.23,0,.42.16.74.48.98s.96.46,1.93.68l.62.14c1.28.27,2.18.66,2.72,1.16s.81,1.19.81,2.08c0,1.02-.4,1.82-1.21,2.42-.8.59-1.91.89-3.32.89-.59,0-1.2-.06-1.83-.17-.64-.11-1.3-.29-2.01-.51v-1.86c.66.35,1.32.61,1.96.78.64.17,1.28.26,1.92.26.85,0,1.5-.14,1.95-.43.46-.29.68-.7.68-1.23,0-.49-.16-.86-.49-1.12-.33-.26-1.05-.51-2.16-.75l-.63-.15c-1.11-.23-1.92-.59-2.41-1.08-.49-.49-.74-1.15-.74-2,0-1.03.36-1.82,1.09-2.38.73-.56,1.76-.84,3.11-.84.66,0,1.29.05,1.87.15.59.1,1.13.24,1.62.44Z"/>
          <path id="DejaVuSans-652" data-name="DejaVuSans-65" d="M493.99,40.57v.88h-8.26c.08,1.24.45,2.18,1.12,2.83.67.65,1.6.97,2.79.97.69,0,1.36-.08,2.01-.25s1.29-.42,1.93-.76v1.7c-.65.27-1.31.48-1.98.63s-1.36.22-2.06.22c-1.75,0-3.13-.51-4.15-1.52-1.02-1.02-1.53-2.39-1.53-4.13s.48-3.21,1.45-4.26c.97-1.05,2.27-1.58,3.91-1.58,1.47,0,2.63.47,3.49,1.42.86.95,1.28,2.23,1.28,3.86ZM492.19,40.04c-.01-.98-.29-1.76-.83-2.35-.54-.59-1.25-.88-2.13-.88-1,0-1.8.28-2.41.85s-.95,1.36-1.04,2.39h6.41Z"/>
          <path id="DejaVuSans-204" data-name="DejaVuSans-20" d="M495.05,46.48"/>
          <path id="DejaVuSans-723" data-name="DejaVuSans-72" d="M509.63,37.23c-.2-.12-.42-.2-.66-.26-.24-.06-.5-.08-.78-.08-1.02,0-1.8.33-2.34.99s-.82,1.61-.82,2.85v5.76h-1.81v-10.94h1.81v1.7c.38-.66.87-1.16,1.48-1.48.61-.32,1.34-.48,2.21-.48.12,0,.26,0,.41.03.15.01.32.04.5.07v1.84Z"/>
          <path id="DejaVuSans-653" data-name="DejaVuSans-65" d="M520.42,40.57v.88h-8.26c.08,1.24.45,2.18,1.12,2.83.67.65,1.6.97,2.79.97.69,0,1.36-.08,2.01-.25s1.29-.42,1.93-.76v1.7c-.65.27-1.31.48-1.98.63s-1.36.22-2.06.22c-1.75,0-3.13-.51-4.15-1.52-1.02-1.02-1.53-2.39-1.53-4.13s.48-3.21,1.45-4.26c.97-1.05,2.27-1.58,3.91-1.58,1.47,0,2.63.47,3.49,1.42.86.95,1.28,2.23,1.28,3.86ZM518.63,40.04c-.01-.98-.29-1.76-.83-2.35-.54-.59-1.25-.88-2.13-.88-1,0-1.8.28-2.41.85s-.95,1.36-1.04,2.39h6.41Z"/>
          <path id="DejaVuSans-701" data-name="DejaVuSans-70" d="M525.11,44.84v5.8h-1.81v-15.1h1.81v1.66c.38-.65.86-1.13,1.43-1.45.58-.32,1.27-.48,2.07-.48,1.33,0,2.41.53,3.24,1.58.83,1.05,1.25,2.44,1.25,4.16s-.42,3.11-1.25,4.16c-.83,1.05-1.91,1.58-3.24,1.58-.8,0-1.49-.16-2.07-.48-.58-.32-1.05-.8-1.43-1.45ZM531.23,41.03c0-1.32-.27-2.36-.82-3.11s-1.29-1.13-2.24-1.13-1.7.38-2.24,1.13-.82,1.79-.82,3.11.27,2.36.82,3.11c.54.75,1.29,1.13,2.24,1.13s1.7-.38,2.24-1.13c.54-.75.82-1.79.82-3.11Z"/>
          <path id="DejaVuSans-6f3" data-name="DejaVuSans-6f" d="M540.31,36.81c-.96,0-1.72.38-2.28,1.13s-.84,1.78-.84,3.09.28,2.34.83,3.09c.56.75,1.32,1.13,2.29,1.13s1.72-.38,2.28-1.13c.56-.76.84-1.79.84-3.09s-.28-2.32-.84-3.08c-.56-.76-1.32-1.14-2.28-1.14ZM540.31,35.28c1.56,0,2.79.51,3.68,1.53.89,1.01,1.34,2.42,1.34,4.22s-.45,3.19-1.34,4.22c-.89,1.02-2.12,1.53-3.68,1.53s-2.8-.51-3.69-1.53c-.89-1.02-1.33-2.43-1.33-4.22s.44-3.2,1.33-4.22c.89-1.02,2.12-1.53,3.69-1.53Z"/>
          <path id="DejaVuSans-724" data-name="DejaVuSans-72" d="M554.64,37.23c-.2-.12-.42-.2-.66-.26-.24-.06-.5-.08-.78-.08-1.02,0-1.8.33-2.34.99s-.82,1.61-.82,2.85v5.76h-1.81v-10.94h1.81v1.7c.38-.66.87-1.16,1.48-1.48.61-.32,1.34-.48,2.21-.48.12,0,.26,0,.41.03.15.01.32.04.5.07v1.84Z"/>
          <path id="DejaVuSans-744" data-name="DejaVuSans-74" d="M558.31,32.44v3.11h3.7v1.4h-3.7v5.94c0,.89.12,1.46.37,1.72s.74.38,1.49.38h1.84v1.5h-1.84c-1.39,0-2.34-.26-2.87-.78-.53-.52-.79-1.46-.79-2.83v-5.94h-1.32v-1.4h1.32v-3.11h1.81Z"/>
        </g>
      </g>
      <g id="legend_1">
        <g id="text_17">
          <g>
            <path id="DejaVuSans-44" d="M73.21,51.79v11.34h2.38c2.01,0,3.49-.46,4.42-1.37.93-.91,1.4-2.35,1.4-4.32s-.47-3.38-1.4-4.29-2.41-1.36-4.42-1.36h-2.38ZM71.24,50.17h4.05c2.83,0,4.9.59,6.22,1.76,1.32,1.18,1.98,3.01,1.98,5.51s-.66,4.36-1.99,5.54c-1.33,1.18-3.4,1.77-6.21,1.77h-4.05v-14.58Z"/>
            <path id="DejaVuSans-654" data-name="DejaVuSans-65" d="M95.92,58.83v.88h-8.26c.08,1.24.45,2.18,1.12,2.83.67.65,1.6.97,2.79.97.69,0,1.36-.08,2.01-.25s1.29-.42,1.93-.76v1.7c-.65.27-1.31.48-1.98.63s-1.36.22-2.06.22c-1.75,0-3.13-.51-4.15-1.52-1.02-1.02-1.53-2.39-1.53-4.13s.48-3.21,1.45-4.26c.97-1.05,2.27-1.58,3.91-1.58,1.47,0,2.63.47,3.49,1.42.86.95,1.28,2.23,1.28,3.86ZM94.12,58.31c-.01-.98-.29-1.76-.83-2.35-.54-.59-1.25-.88-2.13-.88-1,0-1.8.28-2.41.85s-.95,1.36-1.04,2.39h6.41Z"/>
            <path id="DejaVuSans-733" data-name="DejaVuSans-73" d="M105.84,54.14v1.7c-.51-.26-1.03-.46-1.58-.58-.55-.13-1.11-.2-1.7-.2-.89,0-1.56.14-2.01.41-.45.27-.67.68-.67,1.23,0,.42.16.74.48.98s.96.46,1.93.68l.62.14c1.28.27,2.18.66,2.72,1.16s.81,1.19.81,2.08c0,1.02-.4,1.82-1.21,2.42-.8.59-1.91.89-3.32.89-.59,0-1.2-.06-1.83-.17-.64-.11-1.3-.29-2.01-.51v-1.86c.66.35,1.32.61,1.96.78.64.17,1.28.26,1.92.26.85,0,1.5-.14,1.95-.43.46-.29.68-.7.68-1.23,0-.49-.16-.86-.49-1.12-.33-.26-1.05-.51-2.16-.75l-.63-.15c-1.11-.23-1.92-.59-2.41-1.08-.49-.49-.74-1.15-.74-2,0-1.03.36-1.82,1.09-2.38.73-.56,1.76-.84,3.11-.84.66,0,1.29.05,1.87.15.59.1,1.13.24,1.62.44Z"/>
            <path id="DejaVuSans-745" data-name="DejaVuSans-74" d="M111.07,50.71v3.11h3.7v1.4h-3.7v5.94c0,.89.12,1.46.37,1.72s.74.38,1.49.38h1.84v1.5h-1.84c-1.39,0-2.34-.26-2.87-.78-.53-.52-.79-1.46-.79-2.83v-5.94h-1.32v-1.4h1.32v-3.11h1.81Z"/>
            <path id="DejaVuSans-693" data-name="DejaVuSans-69" d="M117.13,53.82h1.8v10.94h-1.8v-10.94ZM117.13,49.56h1.8v2.28h-1.8v-2.28Z"/>
            <path id="DejaVuSans-6e4" data-name="DejaVuSans-6e" d="M131.78,58.15v6.6h-1.8v-6.54c0-1.04-.2-1.81-.61-2.32-.4-.51-1.01-.77-1.82-.77-.97,0-1.74.31-2.3.93-.56.62-.84,1.46-.84,2.53v6.18h-1.81v-10.94h1.81v1.7c.43-.66.94-1.15,1.52-1.48.58-.33,1.26-.49,2.02-.49,1.26,0,2.21.39,2.85,1.17.65.78.97,1.92.97,3.43Z"/>
            <path id="DejaVuSans-612" data-name="DejaVuSans-61" d="M140.33,59.26c-1.45,0-2.46.17-3.02.5s-.84.9-.84,1.7c0,.64.21,1.14.63,1.52.42.37.99.56,1.71.56,1,0,1.8-.35,2.4-1.06s.9-1.64.9-2.82v-.4h-1.79ZM143.92,58.51v6.24h-1.8v-1.66c-.41.66-.92,1.15-1.53,1.47-.61.32-1.36.48-2.25.48-1.12,0-2.01-.31-2.67-.94-.66-.63-.99-1.47-.99-2.53,0-1.23.41-2.16,1.23-2.78.83-.63,2.05-.94,3.69-.94h2.52v-.18c0-.83-.27-1.47-.82-1.92s-1.31-.68-2.29-.68c-.63,0-1.23.08-1.83.23-.59.15-1.16.38-1.71.68v-1.66c.66-.25,1.29-.44,1.91-.57.62-.13,1.22-.19,1.81-.19,1.58,0,2.77.41,3.55,1.23.78.82,1.17,2.06,1.17,3.73Z"/>
            <path id="DejaVuSans-746" data-name="DejaVuSans-74" d="M149.4,50.71v3.11h3.7v1.4h-3.7v5.94c0,.89.12,1.46.37,1.72s.74.38,1.49.38h1.84v1.5h-1.84c-1.39,0-2.34-.26-2.87-.78-.53-.52-.79-1.46-.79-2.83v-5.94h-1.32v-1.4h1.32v-3.11h1.81Z"/>
            <path id="DejaVuSans-694" data-name="DejaVuSans-69" d="M155.46,53.82h1.8v10.94h-1.8v-10.94ZM155.46,49.56h1.8v2.28h-1.8v-2.28Z"/>
            <path id="DejaVuSans-6f4" data-name="DejaVuSans-6f" d="M165.25,55.07c-.96,0-1.72.38-2.28,1.13s-.84,1.78-.84,3.09.28,2.34.83,3.09c.56.75,1.32,1.13,2.29,1.13s1.72-.38,2.28-1.13c.56-.76.84-1.79.84-3.09s-.28-2.32-.84-3.08c-.56-.76-1.32-1.14-2.28-1.14ZM165.25,53.55c1.56,0,2.79.51,3.68,1.53.89,1.01,1.34,2.42,1.34,4.22s-.45,3.19-1.34,4.22c-.89,1.02-2.12,1.53-3.68,1.53s-2.8-.51-3.69-1.53c-.89-1.02-1.33-2.43-1.33-4.22s.44-3.2,1.33-4.22c.89-1.02,2.12-1.53,3.69-1.53Z"/>
            <path id="DejaVuSans-6e5" data-name="DejaVuSans-6e" d="M182.35,58.15v6.6h-1.8v-6.54c0-1.04-.2-1.81-.61-2.32-.4-.51-1.01-.77-1.82-.77-.97,0-1.74.31-2.3.93-.56.62-.84,1.46-.84,2.53v6.18h-1.81v-10.94h1.81v1.7c.43-.66.94-1.15,1.52-1.48.58-.33,1.26-.49,2.02-.49,1.26,0,2.21.39,2.85,1.17.65.78.97,1.92.97,3.43Z"/>
            <path id="DejaVuSans-205" data-name="DejaVuSans-20" d="M184.04,64.75"/>
            <path id="DejaVuSans-28" d="M196.6,49.58c-.87,1.5-1.52,2.98-1.94,4.44-.42,1.46-.63,2.95-.63,4.45s.21,2.99.64,4.47,1.07,2.96,1.94,4.45h-1.56c-.98-1.53-1.71-3.04-2.19-4.51-.49-1.48-.73-2.94-.73-4.4s.24-2.91.72-4.38c.48-1.47,1.22-2.98,2.2-4.51h1.56Z"/>
            <path id="DejaVuSans-66" d="M205.63,49.56v1.5h-1.72c-.64,0-1.09.13-1.34.39-.25.26-.38.73-.38,1.41v.97h2.96v1.4h-2.96v9.54h-1.81v-9.54h-1.72v-1.4h1.72v-.76c0-1.22.28-2.1.85-2.66.57-.56,1.46-.84,2.69-.84h1.7Z"/>
            <path id="DejaVuSans-695" data-name="DejaVuSans-69" d="M207.13,53.82h1.8v10.94h-1.8v-10.94ZM207.13,49.56h1.8v2.28h-1.8v-2.28Z"/>
            <path id="DejaVuSans-6c" d="M212.69,49.56h1.8v15.2h-1.8v-15.2Z"/>
            <path id="DejaVuSans-6c1" data-name="DejaVuSans-6c" d="M218.24,49.56h1.8v15.2h-1.8v-15.2Z"/>
            <path id="DejaVuSans-29" d="M223.52,49.58h1.56c.98,1.54,1.71,3.04,2.19,4.51.49,1.47.73,2.93.73,4.38s-.24,2.93-.73,4.4c-.49,1.48-1.22,2.98-2.19,4.51h-1.56c.86-1.49,1.51-2.98,1.94-4.45.43-1.48.64-2.96.64-4.47s-.21-2.99-.64-4.45c-.43-1.47-1.07-2.95-1.94-4.44Z"/>
          </g>
        </g>
        <g id="patch_5">
          <path class="st28" d="M68.94,94.11h40v-14h-40v14Z"/>
        </g>
        <g id="text_18">
          <g>
            <path id="DejaVuSans-45" d="M126.91,79.53h9.22v1.66h-7.25v4.32h6.94v1.66h-6.94v5.28h7.42v1.66h-9.39v-14.58Z"/>
            <path id="DejaVuSans-613" data-name="DejaVuSans-61" d="M144.44,88.61c-1.45,0-2.46.17-3.02.5s-.84.9-.84,1.7c0,.64.21,1.14.63,1.52.42.37.99.56,1.71.56,1,0,1.8-.35,2.4-1.06s.9-1.64.9-2.82v-.4h-1.79ZM148.02,87.87v6.24h-1.8v-1.66c-.41.66-.92,1.15-1.53,1.47-.61.32-1.36.48-2.25.48-1.12,0-2.01-.31-2.67-.94-.66-.63-.99-1.47-.99-2.53,0-1.23.41-2.16,1.23-2.78.83-.63,2.05-.94,3.69-.94h2.52v-.18c0-.83-.27-1.47-.82-1.92s-1.31-.68-2.29-.68c-.63,0-1.23.08-1.83.23-.59.15-1.16.38-1.71.68v-1.66c.66-.25,1.29-.44,1.91-.57.62-.13,1.22-.19,1.81-.19,1.58,0,2.77.41,3.55,1.23.78.82,1.17,2.06,1.17,3.73Z"/>
            <path id="DejaVuSans-734" data-name="DejaVuSans-73" d="M158.69,83.49v1.7c-.51-.26-1.03-.46-1.58-.58-.55-.13-1.11-.2-1.7-.2-.89,0-1.56.14-2.01.41-.45.27-.67.68-.67,1.23,0,.42.16.74.48.98s.96.46,1.93.68l.62.14c1.28.27,2.18.66,2.72,1.16s.81,1.19.81,2.08c0,1.02-.4,1.82-1.21,2.42-.8.59-1.91.89-3.32.89-.59,0-1.2-.06-1.83-.17-.64-.11-1.3-.29-2.01-.51v-1.86c.66.35,1.32.61,1.96.78.64.17,1.28.26,1.92.26.85,0,1.5-.14,1.95-.43.46-.29.68-.7.68-1.23,0-.49-.16-.86-.49-1.12-.33-.26-1.05-.51-2.16-.75l-.63-.15c-1.11-.23-1.92-.59-2.41-1.08-.49-.49-.74-1.15-.74-2,0-1.03.36-1.82,1.09-2.38.73-.56,1.76-.84,3.11-.84.66,0,1.29.05,1.87.15.59.1,1.13.24,1.62.44Z"/>
            <path id="DejaVuSans-747" data-name="DejaVuSans-74" d="M163.92,80.07v3.11h3.7v1.4h-3.7v5.94c0,.89.12,1.46.37,1.72s.74.38,1.49.38h1.84v1.5h-1.84c-1.39,0-2.34-.26-2.87-.78-.53-.52-.79-1.46-.79-2.83v-5.94h-1.32v-1.4h1.32v-3.11h1.81Z"/>
          </g>
        </g>
        <g id="patch_6">
          <path class="st30" d="M68.94,123.47h40v-14h-40v14Z"/>
        </g>
        <g id="text_19">
          <g>
            <path id="DejaVuSans-53" d="M135.65,109.36v1.93c-.75-.36-1.45-.63-2.12-.8-.66-.18-1.31-.27-1.93-.27-1.07,0-1.9.21-2.48.63-.58.42-.88,1.01-.88,1.78,0,.65.19,1.13.58,1.46.39.33,1.12.59,2.2.79l1.19.24c1.47.28,2.56.78,3.26,1.48s1.05,1.65,1.05,2.83c0,1.41-.47,2.49-1.42,3.22-.95.73-2.33,1.09-4.16,1.09-.69,0-1.42-.08-2.2-.23-.78-.16-1.58-.39-2.42-.69v-2.03c.8.45,1.58.79,2.35,1.02.77.23,1.52.34,2.27.34,1.13,0,1.99-.22,2.61-.66.61-.44.92-1.08.92-1.9,0-.71-.22-1.27-.66-1.68s-1.16-.71-2.16-.91l-1.2-.23c-1.47-.29-2.54-.75-3.19-1.38-.66-.63-.98-1.49-.98-2.61,0-1.29.45-2.31,1.36-3.05.91-.74,2.16-1.11,3.75-1.11.69,0,1.38.06,2.09.19.71.12,1.44.31,2.18.55Z"/>
            <path id="DejaVuSans-6f5" data-name="DejaVuSans-6f" d="M143.76,113.79c-.96,0-1.72.38-2.28,1.13s-.84,1.78-.84,3.09.28,2.34.83,3.09c.56.75,1.32,1.13,2.29,1.13s1.72-.38,2.28-1.13c.56-.76.84-1.79.84-3.09s-.28-2.32-.84-3.08c-.56-.76-1.32-1.14-2.28-1.14ZM143.76,112.27c1.56,0,2.79.51,3.68,1.53.89,1.01,1.34,2.42,1.34,4.22s-.45,3.19-1.34,4.22c-.89,1.02-2.12,1.53-3.68,1.53s-2.8-.51-3.69-1.53c-.89-1.02-1.33-2.43-1.33-4.22s.44-3.2,1.33-4.22c.89-1.02,2.12-1.53,3.69-1.53Z"/>
            <path id="DejaVuSans-751" data-name="DejaVuSans-75" d="M151.58,119.15v-6.62h1.8v6.55c0,1.04.2,1.81.6,2.33.4.52,1.01.78,1.82.78.97,0,1.73-.31,2.3-.93.56-.62.85-1.46.85-2.53v-6.2h1.8v10.94h-1.8v-1.68c-.44.66-.94,1.16-1.52,1.48-.58.32-1.24.48-2.01.48-1.26,0-2.21-.39-2.86-1.17-.65-.78-.98-1.92-.98-3.43ZM156.1,112.27h0Z"/>
            <path id="DejaVuSans-748" data-name="DejaVuSans-74" d="M166.21,109.42v3.11h3.7v1.4h-3.7v5.94c0,.89.12,1.46.37,1.72s.74.38,1.49.38h1.84v1.5h-1.84c-1.39,0-2.34-.26-2.87-.78-.53-.52-.79-1.46-.79-2.83v-5.94h-1.32v-1.4h1.32v-3.11h1.81Z"/>
            <path id="DejaVuSans-681" data-name="DejaVuSans-68" d="M181.37,116.86v6.6h-1.8v-6.54c0-1.04-.2-1.81-.61-2.32-.4-.51-1.01-.77-1.82-.77-.97,0-1.74.31-2.3.93-.56.62-.84,1.46-.84,2.53v6.18h-1.81v-15.2h1.81v5.96c.43-.66.94-1.15,1.52-1.48.58-.33,1.26-.49,2.02-.49,1.26,0,2.21.39,2.85,1.17.65.78.97,1.92.97,3.43Z"/>
          </g>
        </g>
        <g id="patch_7">
          <path class="st31" d="M68.94,152.82h40v-14h-40v14Z"/>
        </g>
        <g id="text_20">
          <g>
            <path id="DejaVuSans-4e" d="M126.91,138.24h2.66l6.47,12.2v-12.2h1.91v14.58h-2.66l-6.46-12.2v12.2h-1.92v-14.58Z"/>
            <path id="DejaVuSans-6f6" data-name="DejaVuSans-6f" d="M146.03,143.14c-.96,0-1.72.38-2.28,1.13s-.84,1.78-.84,3.09.28,2.34.83,3.09c.56.75,1.32,1.13,2.29,1.13s1.72-.38,2.28-1.13c.56-.76.84-1.79.84-3.09s-.28-2.32-.84-3.08c-.56-.76-1.32-1.14-2.28-1.14ZM146.03,141.62c1.56,0,2.79.51,3.68,1.53.89,1.01,1.34,2.42,1.34,4.22s-.45,3.19-1.34,4.22c-.89,1.02-2.12,1.53-3.68,1.53s-2.8-.51-3.69-1.53c-.89-1.02-1.33-2.43-1.33-4.22s.44-3.2,1.33-4.22c.89-1.02,2.12-1.53,3.69-1.53Z"/>
            <path id="DejaVuSans-725" data-name="DejaVuSans-72" d="M160.36,143.56c-.2-.12-.42-.2-.66-.26-.24-.06-.5-.08-.78-.08-1.02,0-1.8.33-2.34.99s-.82,1.61-.82,2.85v5.76h-1.81v-10.94h1.81v1.7c.38-.66.87-1.16,1.48-1.48.61-.32,1.34-.48,2.21-.48.12,0,.26,0,.41.03.15.01.32.04.5.07v1.84Z"/>
            <path id="DejaVuSans-749" data-name="DejaVuSans-74" d="M164.03,138.78v3.11h3.7v1.4h-3.7v5.94c0,.89.12,1.46.37,1.72s.74.38,1.49.38h1.84v1.5h-1.84c-1.39,0-2.34-.26-2.87-.78-.53-.52-.79-1.46-.79-2.83v-5.94h-1.32v-1.4h1.32v-3.11h1.81Z"/>
            <path id="DejaVuSans-682" data-name="DejaVuSans-68" d="M179.18,146.22v6.6h-1.8v-6.54c0-1.04-.2-1.81-.61-2.32-.4-.51-1.01-.77-1.82-.77-.97,0-1.74.31-2.3.93-.56.62-.84,1.46-.84,2.53v6.18h-1.81v-15.2h1.81v5.96c.43-.66.94-1.15,1.52-1.48.58-.33,1.26-.49,2.02-.49,1.26,0,2.21.39,2.85,1.17.65.78.97,1.92.97,3.43Z"/>
            <path id="DejaVuSans-57" d="M181.55,138.24h1.99l3.07,12.33,3.06-12.33h2.22l3.07,12.33,3.06-12.33h2l-3.66,14.58h-2.48l-3.08-12.66-3.11,12.66h-2.48l-3.65-14.58Z"/>
            <path id="DejaVuSans-655" data-name="DejaVuSans-65" d="M210.72,146.9v.88h-8.26c.08,1.24.45,2.18,1.12,2.83.67.65,1.6.97,2.79.97.69,0,1.36-.08,2.01-.25s1.29-.42,1.93-.76v1.7c-.65.27-1.31.48-1.98.63s-1.36.22-2.06.22c-1.75,0-3.13-.51-4.15-1.52-1.02-1.02-1.53-2.39-1.53-4.13s.48-3.21,1.45-4.26c.97-1.05,2.27-1.58,3.91-1.58,1.47,0,2.63.47,3.49,1.42.86.95,1.28,2.23,1.28,3.86ZM208.93,146.38c-.01-.98-.29-1.76-.83-2.35-.54-.59-1.25-.88-2.13-.88-1,0-1.8.28-2.41.85s-.95,1.36-1.04,2.39h6.41Z"/>
            <path id="DejaVuSans-735" data-name="DejaVuSans-73" d="M220.64,142.21v1.7c-.51-.26-1.03-.46-1.58-.58-.55-.13-1.11-.2-1.7-.2-.89,0-1.56.14-2.01.41-.45.27-.67.68-.67,1.23,0,.42.16.74.48.98s.96.46,1.93.68l.62.14c1.28.27,2.18.66,2.72,1.16s.81,1.19.81,2.08c0,1.02-.4,1.82-1.21,2.42-.8.59-1.91.89-3.32.89-.59,0-1.2-.06-1.83-.17-.64-.11-1.3-.29-2.01-.51v-1.86c.66.35,1.32.61,1.96.78.64.17,1.28.26,1.92.26.85,0,1.5-.14,1.95-.43.46-.29.68-.7.68-1.23,0-.49-.16-.86-.49-1.12-.33-.26-1.05-.51-2.16-.75l-.63-.15c-1.11-.23-1.92-.59-2.41-1.08-.49-.49-.74-1.15-.74-2,0-1.03.36-1.82,1.09-2.38.73-.56,1.76-.84,3.11-.84.66,0,1.29.05,1.87.15.59.1,1.13.24,1.62.44Z"/>
            <path id="DejaVuSans-7410" data-name="DejaVuSans-74" d="M225.87,138.78v3.11h3.7v1.4h-3.7v5.94c0,.89.12,1.46.37,1.72s.74.38,1.49.38h1.84v1.5h-1.84c-1.39,0-2.34-.26-2.87-.78-.53-.52-.79-1.46-.79-2.83v-5.94h-1.32v-1.4h1.32v-3.11h1.81Z"/>
          </g>
        </g>
        <g id="patch_8">
          <path class="st29" d="M68.94,182.18h40v-14h-40v14Z"/>
        </g>
        <g id="text_21">
          <g>
            <path id="DejaVuSans-4e1" data-name="DejaVuSans-4e" d="M126.91,167.6h2.66l6.47,12.2v-12.2h1.91v14.58h-2.66l-6.46-12.2v12.2h-1.92v-14.58Z"/>
            <path id="DejaVuSans-6f7" data-name="DejaVuSans-6f" d="M146.03,172.5c-.96,0-1.72.38-2.28,1.13s-.84,1.78-.84,3.09.28,2.34.83,3.09c.56.75,1.32,1.13,2.29,1.13s1.72-.38,2.28-1.13c.56-.76.84-1.79.84-3.09s-.28-2.32-.84-3.08c-.56-.76-1.32-1.14-2.28-1.14ZM146.03,170.98c1.56,0,2.79.51,3.68,1.53.89,1.01,1.34,2.42,1.34,4.22s-.45,3.19-1.34,4.22c-.89,1.02-2.12,1.53-3.68,1.53s-2.8-.51-3.69-1.53c-.89-1.02-1.33-2.43-1.33-4.22s.44-3.2,1.33-4.22c.89-1.02,2.12-1.53,3.69-1.53Z"/>
            <path id="DejaVuSans-726" data-name="DejaVuSans-72" d="M160.36,172.92c-.2-.12-.42-.2-.66-.26-.24-.06-.5-.08-.78-.08-1.02,0-1.8.33-2.34.99s-.82,1.61-.82,2.85v5.76h-1.81v-10.94h1.81v1.7c.38-.66.87-1.16,1.48-1.48.61-.32,1.34-.48,2.21-.48.12,0,.26,0,.41.03.15.01.32.04.5.07v1.84Z"/>
            <path id="DejaVuSans-7411" data-name="DejaVuSans-74" d="M164.03,168.13v3.11h3.7v1.4h-3.7v5.94c0,.89.12,1.46.37,1.72s.74.38,1.49.38h1.84v1.5h-1.84c-1.39,0-2.34-.26-2.87-.78-.53-.52-.79-1.46-.79-2.83v-5.94h-1.32v-1.4h1.32v-3.11h1.81Z"/>
            <path id="DejaVuSans-683" data-name="DejaVuSans-68" d="M179.18,175.57v6.6h-1.8v-6.54c0-1.04-.2-1.81-.61-2.32-.4-.51-1.01-.77-1.82-.77-.97,0-1.74.31-2.3.93-.56.62-.84,1.46-.84,2.53v6.18h-1.81v-15.2h1.81v5.96c.43-.66.94-1.15,1.52-1.48.58-.33,1.26-.49,2.02-.49,1.26,0,2.21.39,2.85,1.17.65.78.97,1.92.97,3.43Z"/>
          </g>
        </g>
        <g id="patch_9">
          <path class="st22" d="M68.94,211.53h40v-14h-40v14Z"/>
        </g>
        <g id="text_22">
          <g>
            <path id="DejaVuSans-571" data-name="DejaVuSans-57" d="M125.61,196.95h1.99l3.07,12.33,3.06-12.33h2.22l3.07,12.33,3.06-12.33h2l-3.66,14.58h-2.48l-3.08-12.66-3.11,12.66h-2.48l-3.65-14.58Z"/>
            <path id="DejaVuSans-656" data-name="DejaVuSans-65" d="M154.79,205.62v.88h-8.26c.08,1.24.45,2.18,1.12,2.83.67.65,1.6.97,2.79.97.69,0,1.36-.08,2.01-.25s1.29-.42,1.93-.76v1.7c-.65.27-1.31.48-1.98.63s-1.36.22-2.06.22c-1.75,0-3.13-.51-4.15-1.52-1.02-1.02-1.53-2.39-1.53-4.13s.48-3.21,1.45-4.26c.97-1.05,2.27-1.58,3.91-1.58,1.47,0,2.63.47,3.49,1.42.86.95,1.28,2.23,1.28,3.86ZM152.99,205.09c-.01-.98-.29-1.76-.83-2.35-.54-.59-1.25-.88-2.13-.88-1,0-1.8.28-2.41.85s-.95,1.36-1.04,2.39h6.41Z"/>
            <path id="DejaVuSans-736" data-name="DejaVuSans-73" d="M164.71,200.92v1.7c-.51-.26-1.03-.46-1.58-.58-.55-.13-1.11-.2-1.7-.2-.89,0-1.56.14-2.01.41-.45.27-.67.68-.67,1.23,0,.42.16.74.48.98s.96.46,1.93.68l.62.14c1.28.27,2.18.66,2.72,1.16s.81,1.19.81,2.08c0,1.02-.4,1.82-1.21,2.42-.8.59-1.91.89-3.32.89-.59,0-1.2-.06-1.83-.17-.64-.11-1.3-.29-2.01-.51v-1.86c.66.35,1.32.61,1.96.78.64.17,1.28.26,1.92.26.85,0,1.5-.14,1.95-.43.46-.29.68-.7.68-1.23,0-.49-.16-.86-.49-1.12-.33-.26-1.05-.51-2.16-.75l-.63-.15c-1.11-.23-1.92-.59-2.41-1.08-.49-.49-.74-1.15-.74-2,0-1.03.36-1.82,1.09-2.38.73-.56,1.76-.84,3.11-.84.66,0,1.29.05,1.87.15.59.1,1.13.24,1.62.44Z"/>
            <path id="DejaVuSans-7412" data-name="DejaVuSans-74" d="M169.93,197.49v3.11h3.7v1.4h-3.7v5.94c0,.89.12,1.46.37,1.72s.74.38,1.49.38h1.84v1.5h-1.84c-1.39,0-2.34-.26-2.87-.78-.53-.52-.79-1.46-.79-2.83v-5.94h-1.32v-1.4h1.32v-3.11h1.81Z"/>
          </g>
        </g>
      </g>
      <g id="legend_2">
        <g id="text_23">
          <g>
            <path id="DejaVuSans-4f" d="M741.86,12.95c-1.43,0-2.57.53-3.42,1.6-.84,1.07-1.26,2.52-1.26,4.37s.42,3.29,1.26,4.36c.84,1.07,1.98,1.6,3.42,1.6s2.57-.53,3.4-1.6c.84-1.07,1.26-2.52,1.26-4.36s-.42-3.3-1.26-4.37c-.84-1.07-1.97-1.6-3.4-1.6ZM741.86,11.35c2.04,0,3.68.69,4.9,2.06,1.23,1.37,1.84,3.21,1.84,5.51s-.61,4.13-1.84,5.5c-1.22,1.37-2.86,2.06-4.9,2.06s-3.69-.68-4.92-2.05c-1.23-1.37-1.84-3.21-1.84-5.51s.61-4.14,1.84-5.51c1.23-1.37,2.87-2.06,4.92-2.06Z"/>
            <path id="DejaVuSans-727" data-name="DejaVuSans-72" d="M757.94,16.93c-.2-.12-.42-.2-.66-.26-.24-.06-.5-.08-.78-.08-1.02,0-1.8.33-2.34.99s-.82,1.61-.82,2.85v5.76h-1.81v-10.94h1.81v1.7c.38-.66.87-1.16,1.48-1.48.61-.32,1.34-.48,2.21-.48.12,0,.26,0,.41.03.15.01.32.04.5.07v1.84Z"/>
            <path id="DejaVuSans-696" data-name="DejaVuSans-69" d="M759.82,15.25h1.8v10.94h-1.8v-10.94ZM759.82,10.99h1.8v2.28h-1.8v-2.28Z"/>
            <path id="DejaVuSans-67" d="M772.58,20.59c0-1.3-.27-2.31-.81-3.03-.54-.72-1.29-1.08-2.26-1.08s-1.71.36-2.25,1.08c-.54.71-.81,1.72-.81,3.03s.27,2.3.81,3.02c.54.72,1.29,1.08,2.25,1.08s1.72-.36,2.26-1.08c.54-.72.81-1.72.81-3.02ZM774.37,24.83c0,1.86-.41,3.24-1.24,4.15-.83.91-2.09,1.36-3.8,1.36-.63,0-1.23-.05-1.79-.14s-1.1-.24-1.63-.43v-1.75c.53.29,1.05.5,1.56.63.51.14,1.04.21,1.57.21,1.18,0,2.06-.31,2.65-.92.59-.61.88-1.54.88-2.79v-.89c-.37.65-.85,1.13-1.43,1.45s-1.27.48-2.08.48c-1.34,0-2.42-.51-3.24-1.53-.82-1.02-1.23-2.38-1.23-4.07s.41-3.05,1.23-4.07c.82-1.02,1.9-1.53,3.24-1.53.81,0,1.5.16,2.08.48s1.05.8,1.43,1.44v-1.66h1.8v9.58Z"/>
            <path id="DejaVuSans-697" data-name="DejaVuSans-69" d="M778.08,15.25h1.8v10.94h-1.8v-10.94ZM778.08,10.99h1.8v2.28h-1.8v-2.28Z"/>
            <path id="DejaVuSans-6e6" data-name="DejaVuSans-6e" d="M792.73,19.59v6.6h-1.8v-6.54c0-1.04-.2-1.81-.61-2.32-.4-.51-1.01-.77-1.82-.77-.97,0-1.74.31-2.3.93-.56.62-.84,1.46-.84,2.53v6.18h-1.81v-10.94h1.81v1.7c.43-.66.94-1.15,1.52-1.48.58-.33,1.26-.49,2.02-.49,1.26,0,2.21.39,2.85,1.17.65.78.97,1.92.97,3.43Z"/>
            <path id="DejaVuSans-206" data-name="DejaVuSans-20" d="M794.42,26.19"/>
            <path id="DejaVuSans-281" data-name="DejaVuSans-28" d="M806.98,11.02c-.87,1.5-1.52,2.98-1.94,4.44-.42,1.46-.63,2.95-.63,4.45s.21,2.99.64,4.47,1.07,2.96,1.94,4.45h-1.56c-.98-1.53-1.71-3.04-2.19-4.51-.49-1.48-.73-2.94-.73-4.4s.24-2.91.72-4.38c.48-1.47,1.22-2.98,2.2-4.51h1.56Z"/>
            <path id="DejaVuSans-6f8" data-name="DejaVuSans-6f" d="M814.71,16.51c-.96,0-1.72.38-2.28,1.13s-.84,1.78-.84,3.09.28,2.34.83,3.09c.56.75,1.32,1.13,2.29,1.13s1.72-.38,2.28-1.13c.56-.76.84-1.79.84-3.09s-.28-2.32-.84-3.08c-.56-.76-1.32-1.14-2.28-1.14ZM814.71,14.99c1.56,0,2.79.51,3.68,1.53.89,1.01,1.34,2.42,1.34,4.22s-.45,3.19-1.34,4.22c-.89,1.02-2.12,1.53-3.68,1.53s-2.8-.51-3.69-1.53c-.89-1.02-1.33-2.43-1.33-4.22s.44-3.2,1.33-4.22c.89-1.02,2.12-1.53,3.69-1.53Z"/>
            <path id="DejaVuSans-752" data-name="DejaVuSans-75" d="M822.52,21.88v-6.62h1.8v6.55c0,1.04.2,1.81.6,2.33.4.52,1.01.78,1.82.78.97,0,1.73-.31,2.3-.93.56-.62.85-1.46.85-2.53v-6.2h1.8v10.94h-1.8v-1.68c-.44.66-.94,1.16-1.52,1.48-.58.32-1.24.48-2.01.48-1.26,0-2.21-.39-2.86-1.17-.65-.78-.98-1.92-.98-3.43ZM827.04,14.99h0Z"/>
            <path id="DejaVuSans-7413" data-name="DejaVuSans-74" d="M837.16,12.15v3.11h3.7v1.4h-3.7v5.94c0,.89.12,1.46.37,1.72s.74.38,1.49.38h1.84v1.5h-1.84c-1.39,0-2.34-.26-2.87-.78-.53-.52-.79-1.46-.79-2.83v-5.94h-1.32v-1.4h1.32v-3.11h1.81Z"/>
            <path id="DejaVuSans-6c2" data-name="DejaVuSans-6c" d="M843.22,10.99h1.8v15.2h-1.8v-15.2Z"/>
            <path id="DejaVuSans-698" data-name="DejaVuSans-69" d="M848.78,15.25h1.8v10.94h-1.8v-10.94ZM848.78,10.99h1.8v2.28h-1.8v-2.28Z"/>
            <path id="DejaVuSans-6e7" data-name="DejaVuSans-6e" d="M863.43,19.59v6.6h-1.8v-6.54c0-1.04-.2-1.81-.61-2.32-.4-.51-1.01-.77-1.82-.77-.97,0-1.74.31-2.3.93-.56.62-.84,1.46-.84,2.53v6.18h-1.81v-10.94h1.81v1.7c.43-.66.94-1.15,1.52-1.48.58-.33,1.26-.49,2.02-.49,1.26,0,2.21.39,2.85,1.17.65.78.97,1.92.97,3.43Z"/>
            <path id="DejaVuSans-657" data-name="DejaVuSans-65" d="M876.37,20.27v.88h-8.26c.08,1.24.45,2.18,1.12,2.83.67.65,1.6.97,2.79.97.69,0,1.36-.08,2.01-.25s1.29-.42,1.93-.76v1.7c-.65.27-1.31.48-1.98.63s-1.36.22-2.06.22c-1.75,0-3.13-.51-4.15-1.52-1.02-1.02-1.53-2.39-1.53-4.13s.48-3.21,1.45-4.26c.97-1.05,2.27-1.58,3.91-1.58,1.47,0,2.63.47,3.49,1.42.86.95,1.28,2.23,1.28,3.86ZM874.57,19.74c-.01-.98-.29-1.76-.83-2.35-.54-.59-1.25-.88-2.13-.88-1,0-1.8.28-2.41.85s-.95,1.36-1.04,2.39h6.41Z"/>
            <path id="DejaVuSans-291" data-name="DejaVuSans-29" d="M879.04,11.02h1.56c.98,1.54,1.71,3.04,2.19,4.51.49,1.47.73,2.93.73,4.38s-.24,2.93-.73,4.4c-.49,1.48-1.22,2.98-2.19,4.51h-1.56c.86-1.49,1.51-2.98,1.94-4.45.43-1.48.64-2.96.64-4.47s-.21-2.99-.64-4.45c-.43-1.47-1.07-2.95-1.94-4.44Z"/>
          </g>
        </g>
        <g id="patch_10">
          <path class="st24" d="M729.05,55.55h40v-14h-40v14Z"/>
        </g>
        <g id="text_24">
          <g>
            <path id="DejaVuSans-572" data-name="DejaVuSans-57" d="M785.72,40.97h1.99l3.07,12.33,3.06-12.33h2.22l3.07,12.33,3.06-12.33h2l-3.66,14.58h-2.48l-3.08-12.66-3.11,12.66h-2.48l-3.65-14.58Z"/>
            <path id="DejaVuSans-658" data-name="DejaVuSans-65" d="M814.89,49.63v.88h-8.26c.08,1.24.45,2.18,1.12,2.83.67.65,1.6.97,2.79.97.69,0,1.36-.08,2.01-.25s1.29-.42,1.93-.76v1.7c-.65.27-1.31.48-1.98.63s-1.36.22-2.06.22c-1.75,0-3.13-.51-4.15-1.52-1.02-1.02-1.53-2.39-1.53-4.13s.48-3.21,1.45-4.26c.97-1.05,2.27-1.58,3.91-1.58,1.47,0,2.63.47,3.49,1.42.86.95,1.28,2.23,1.28,3.86ZM813.1,49.1c-.01-.98-.29-1.76-.83-2.35-.54-.59-1.25-.88-2.13-.88-1,0-1.8.28-2.41.85s-.95,1.36-1.04,2.39h6.41Z"/>
            <path id="DejaVuSans-737" data-name="DejaVuSans-73" d="M824.81,44.93v1.7c-.51-.26-1.03-.46-1.58-.58-.55-.13-1.11-.2-1.7-.2-.89,0-1.56.14-2.01.41-.45.27-.67.68-.67,1.23,0,.42.16.74.48.98s.96.46,1.93.68l.62.14c1.28.27,2.18.66,2.72,1.16s.81,1.19.81,2.08c0,1.02-.4,1.82-1.21,2.42-.8.59-1.91.89-3.32.89-.59,0-1.2-.06-1.83-.17-.64-.11-1.3-.29-2.01-.51v-1.86c.66.35,1.32.61,1.96.78.64.17,1.28.26,1.92.26.85,0,1.5-.14,1.95-.43.46-.29.68-.7.68-1.23,0-.49-.16-.86-.49-1.12-.33-.26-1.05-.51-2.16-.75l-.63-.15c-1.11-.23-1.92-.59-2.41-1.08-.49-.49-.74-1.15-.74-2,0-1.03.36-1.82,1.09-2.38.73-.56,1.76-.84,3.11-.84.66,0,1.29.05,1.87.15.59.1,1.13.24,1.62.44Z"/>
            <path id="DejaVuSans-7414" data-name="DejaVuSans-74" d="M830.04,41.5v3.11h3.7v1.4h-3.7v5.94c0,.89.12,1.46.37,1.72s.74.38,1.49.38h1.84v1.5h-1.84c-1.39,0-2.34-.26-2.87-.78-.53-.52-.79-1.46-.79-2.83v-5.94h-1.32v-1.4h1.32v-3.11h1.81Z"/>
          </g>
        </g>
        <g id="patch_11">
          <path class="st25" d="M729.05,84.9h40v-14h-40v14Z"/>
        </g>
        <g id="text_25">
          <g>
            <path id="DejaVuSans-451" data-name="DejaVuSans-45" d="M787.02,70.32h9.22v1.66h-7.25v4.32h6.94v1.66h-6.94v5.28h7.42v1.66h-9.39v-14.58Z"/>
            <path id="DejaVuSans-614" data-name="DejaVuSans-61" d="M804.55,79.41c-1.45,0-2.46.17-3.02.5s-.84.9-.84,1.7c0,.64.21,1.14.63,1.52.42.37.99.56,1.71.56,1,0,1.8-.35,2.4-1.06s.9-1.64.9-2.82v-.4h-1.79ZM808.13,78.66v6.24h-1.8v-1.66c-.41.66-.92,1.15-1.53,1.47-.61.32-1.36.48-2.25.48-1.12,0-2.01-.31-2.67-.94-.66-.63-.99-1.47-.99-2.53,0-1.23.41-2.16,1.23-2.78.83-.63,2.05-.94,3.69-.94h2.52v-.18c0-.83-.27-1.47-.82-1.92s-1.31-.68-2.29-.68c-.63,0-1.23.08-1.83.23-.59.15-1.16.38-1.71.68v-1.66c.66-.25,1.29-.44,1.91-.57.62-.13,1.22-.19,1.81-.19,1.58,0,2.77.41,3.55,1.23.78.82,1.17,2.06,1.17,3.73Z"/>
            <path id="DejaVuSans-738" data-name="DejaVuSans-73" d="M818.8,74.29v1.7c-.51-.26-1.03-.46-1.58-.58-.55-.13-1.11-.2-1.7-.2-.89,0-1.56.14-2.01.41-.45.27-.67.68-.67,1.23,0,.42.16.74.48.98s.96.46,1.93.68l.62.14c1.28.27,2.18.66,2.72,1.16s.81,1.19.81,2.08c0,1.02-.4,1.82-1.21,2.42-.8.59-1.91.89-3.32.89-.59,0-1.2-.06-1.83-.17-.64-.11-1.3-.29-2.01-.51v-1.86c.66.35,1.32.61,1.96.78.64.17,1.28.26,1.92.26.85,0,1.5-.14,1.95-.43.46-.29.68-.7.68-1.23,0-.49-.16-.86-.49-1.12-.33-.26-1.05-.51-2.16-.75l-.63-.15c-1.11-.23-1.92-.59-2.41-1.08-.49-.49-.74-1.15-.74-2,0-1.03.36-1.82,1.09-2.38.73-.56,1.76-.84,3.11-.84.66,0,1.29.05,1.87.15.59.1,1.13.24,1.62.44Z"/>
            <path id="DejaVuSans-7415" data-name="DejaVuSans-74" d="M824.03,70.86v3.11h3.7v1.4h-3.7v5.94c0,.89.12,1.46.37,1.72s.74.38,1.49.38h1.84v1.5h-1.84c-1.39,0-2.34-.26-2.87-.78-.53-.52-.79-1.46-.79-2.83v-5.94h-1.32v-1.4h1.32v-3.11h1.81Z"/>
          </g>
        </g>
        <g id="patch_12">
          <path class="st21" d="M729.05,114.26h40v-14h-40v14Z"/>
        </g>
        <g id="text_26">
          <g>
            <path id="DejaVuSans-531" data-name="DejaVuSans-53" d="M795.76,100.16v1.93c-.75-.36-1.45-.63-2.12-.8-.66-.18-1.31-.27-1.93-.27-1.07,0-1.9.21-2.48.63-.58.42-.88,1.01-.88,1.78,0,.65.19,1.13.58,1.46.39.33,1.12.59,2.2.79l1.19.24c1.47.28,2.56.78,3.26,1.48s1.05,1.65,1.05,2.83c0,1.41-.47,2.49-1.42,3.22-.95.73-2.33,1.09-4.16,1.09-.69,0-1.42-.08-2.2-.23-.78-.16-1.58-.39-2.42-.69v-2.03c.8.45,1.58.79,2.35,1.02.77.23,1.52.34,2.27.34,1.13,0,1.99-.22,2.61-.66.61-.44.92-1.08.92-1.9,0-.71-.22-1.27-.66-1.68s-1.16-.71-2.16-.91l-1.2-.23c-1.47-.29-2.54-.75-3.19-1.38-.66-.63-.98-1.49-.98-2.61,0-1.29.45-2.31,1.36-3.05.91-.74,2.16-1.11,3.75-1.11.69,0,1.38.06,2.09.19.71.12,1.44.31,2.18.55Z"/>
            <path id="DejaVuSans-6f9" data-name="DejaVuSans-6f" d="M803.87,104.58c-.96,0-1.72.38-2.28,1.13s-.84,1.78-.84,3.09.28,2.34.83,3.09c.56.75,1.32,1.13,2.29,1.13s1.72-.38,2.28-1.13c.56-.76.84-1.79.84-3.09s-.28-2.32-.84-3.08c-.56-.76-1.32-1.14-2.28-1.14ZM803.87,103.06c1.56,0,2.79.51,3.68,1.53.89,1.01,1.34,2.42,1.34,4.22s-.45,3.19-1.34,4.22c-.89,1.02-2.12,1.53-3.68,1.53s-2.8-.51-3.69-1.53c-.89-1.02-1.33-2.43-1.33-4.22s.44-3.2,1.33-4.22c.89-1.02,2.12-1.53,3.69-1.53Z"/>
            <path id="DejaVuSans-753" data-name="DejaVuSans-75" d="M811.68,109.94v-6.62h1.8v6.55c0,1.04.2,1.81.6,2.33.4.52,1.01.78,1.82.78.97,0,1.73-.31,2.3-.93.56-.62.85-1.46.85-2.53v-6.2h1.8v10.94h-1.8v-1.68c-.44.66-.94,1.16-1.52,1.48-.58.32-1.24.48-2.01.48-1.26,0-2.21-.39-2.86-1.17-.65-.78-.98-1.92-.98-3.43ZM816.21,103.06h0Z"/>
            <path id="DejaVuSans-7416" data-name="DejaVuSans-74" d="M826.32,100.22v3.11h3.7v1.4h-3.7v5.94c0,.89.12,1.46.37,1.72s.74.38,1.49.38h1.84v1.5h-1.84c-1.39,0-2.34-.26-2.87-.78-.53-.52-.79-1.46-.79-2.83v-5.94h-1.32v-1.4h1.32v-3.11h1.81Z"/>
            <path id="DejaVuSans-684" data-name="DejaVuSans-68" d="M841.48,107.66v6.6h-1.8v-6.54c0-1.04-.2-1.81-.61-2.32-.4-.51-1.01-.77-1.82-.77-.97,0-1.74.31-2.3.93-.56.62-.84,1.46-.84,2.53v6.18h-1.81v-15.2h1.81v5.96c.43-.66.94-1.15,1.52-1.48.58-.33,1.26-.49,2.02-.49,1.26,0,2.21.39,2.85,1.17.65.78.97,1.92.97,3.43Z"/>
          </g>
        </g>
      </g>
      <g id="line2d_15">
        <g class="st42">
          <path class="st1" d="M388.93,392.52V31.56"/>
        </g>
      </g>
    </g>
  </g>
</svg>